<?xml version="1.0" encoding="UTF-8" standalone="no"?>
<!DOCTYPE svg PUBLIC "-//W3C//DTD SVG 1.1//EN" "http://www.w3.org/Graphics/SVG/1.1/DTD/svg11.dtd">
<svg width="240" height="336" viewBox="0 0 240 336" version="1.1" xmlns="http://www.w3.org/2000/svg" xmlns:xlink="http://www.w3.org/1999/xlink" xml:space="preserve" xmlns:serif="http://www.serif.com/" style="fill-rule:evenodd;clip-rule:evenodd;stroke-linejoin:round;stroke-miterlimit:2;">
    <rect x="-24" y="-33.6" width="288" height="403.2" style="fill:white;"/>
    <g>
        <g transform="matrix(1,0,0,1,8,18.6667)">
            <g>
                <g>
                    <g>
                        <g>
                            <g>
                                <g>
                                    <path d="M205.323,290.724C205.323,287.026 207.51,284.781 211.115,284.781C212.891,284.781 214.359,285.328 215.359,286.328C216.417,287.385 216.911,288.839 216.911,290.76C216.911,292.141 216.458,293.276 215.589,294.141C214.359,295.37 212.438,295.917 211.115,295.917C209.797,295.917 207.875,295.37 206.646,294.089C205.776,293.219 205.323,292.083 205.323,290.708M112.141,66.51C107.172,66.458 103.115,69.078 100.339,73.083C98.109,76.891 97.854,80.297 98.641,83.823C99.188,85.943 100.151,87.99 101.755,89.766C102.26,90.328 103.859,92.047 103.953,92.745C104.089,93.677 103.635,93.693 102.917,93.344C101.458,92.635 100.859,92.167 99.177,91.688C90.62,89.698 82.583,95.375 82.583,104.484C82.583,110.573 86.932,116.396 93.594,117.266C98.042,117.786 100.646,116.745 102.979,115.193C106.078,113.135 107.359,110.495 108.161,108.594C108.615,107.526 108.87,106.323 109.495,106.167C110.125,106.005 110.125,106.885 110.151,107.313C110.188,108.26 110.057,109.516 110.016,109.906C109.484,114.969 106.641,123.542 104.516,126.922L119.76,126.922C117.651,123.552 114.807,114.969 114.276,109.906C114.234,109.531 114.099,108.276 114.141,107.313C114.156,106.885 114.156,106.005 114.797,106.167C115.438,106.323 115.677,107.526 116.13,108.594C116.932,110.495 118.214,113.135 121.313,115.193C123.646,116.745 126.266,117.786 130.698,117.266C137.359,116.396 141.708,110.573 141.708,104.484C141.708,95.375 133.672,89.698 125.115,91.688C123.432,92.167 122.833,92.635 121.375,93.344C120.656,93.693 120.203,93.677 120.339,92.745C120.427,92.063 122.031,90.328 122.536,89.766C124.141,87.99 125.104,85.943 125.651,83.823C126.438,80.297 126.198,76.901 123.953,73.083C121.193,69.078 117.12,66.458 112.167,66.51M112.167,232.667C117.13,232.719 121.193,230.104 123.969,226.094C126.198,222.292 126.448,218.885 125.661,215.359C125.115,213.234 124.156,211.193 122.552,209.417C122.047,208.854 120.443,207.13 120.349,206.438C120.214,205.5 120.672,205.49 121.391,205.839C122.844,206.542 123.448,207.01 125.13,207.495C133.688,209.484 141.724,203.807 141.724,194.698C141.724,188.609 137.37,182.786 130.708,181.917C126.276,181.396 123.661,182.438 121.323,183.984C118.229,186.042 116.943,188.677 116.146,190.583C115.693,191.651 115.438,192.854 114.807,193.016C114.182,193.177 114.182,192.281 114.156,191.865C114.115,190.906 114.25,189.661 114.286,189.276C114.823,184.214 117.667,175.641 119.786,172.26L104.516,172.26C106.625,175.625 109.469,184.214 110.005,189.276C110.042,189.661 110.177,190.906 110.135,191.865C110.125,192.292 110.125,193.177 109.484,193.016C108.844,192.854 108.599,191.651 108.146,190.583C107.344,188.688 106.063,186.042 102.969,183.984C100.63,182.438 98.016,181.396 93.583,181.917C86.922,182.786 82.568,188.62 82.568,194.698C82.568,203.792 90.604,209.484 99.161,207.495C100.844,207.01 101.448,206.542 102.901,205.839C103.62,205.49 104.078,205.5 103.943,206.438C103.849,207.12 102.245,208.854 101.74,209.417C100.135,211.193 99.177,213.234 98.63,215.359C97.839,218.885 98.083,222.276 100.323,226.094C103.099,230.104 107.161,232.719 112.115,232.667M59.635,13.641C54.682,13.583 50.609,16.203 47.844,20.208C45.615,24.016 45.359,27.406 46.151,30.948C46.698,33.073 47.656,35.115 49.26,36.891C49.766,37.453 51.37,39.188 51.464,39.87C51.594,40.802 51.141,40.818 50.422,40.469C48.969,39.76 48.365,39.297 46.682,38.813C38.125,36.823 30.089,42.5 30.089,51.609C30.089,57.698 34.443,63.521 41.104,64.391C45.547,64.911 48.151,63.87 50.49,62.318C53.583,60.26 54.865,57.62 55.667,55.724C56.12,54.651 56.375,53.453 57.005,53.292C57.63,53.13 57.63,54.026 57.656,54.438C57.698,55.385 57.563,56.646 57.526,57.031C56.99,62.094 54.146,70.667 52.026,74.047L67.281,74.047C65.172,70.682 62.328,62.094 61.797,57.031C61.755,56.646 61.62,55.401 61.661,54.438C61.677,54.01 61.677,53.13 62.318,53.292C62.958,53.453 63.198,54.651 63.641,55.724C64.438,57.62 65.734,60.26 68.818,62.318C71.156,63.87 73.771,64.911 78.203,64.391C84.865,63.521 89.219,57.698 89.219,51.609C89.219,42.5 81.167,36.823 72.625,38.813C70.943,39.297 70.339,39.76 68.885,40.469C68.161,40.818 67.708,40.802 67.844,39.87C67.938,39.188 69.536,37.453 70.047,36.891C71.646,35.115 72.609,33.073 73.156,30.948C73.943,27.422 73.693,24.031 71.464,20.208C68.698,16.203 64.625,13.583 59.672,13.641M59.672,119.401C54.719,119.349 50.651,121.964 47.885,125.969C45.656,129.776 45.401,133.172 46.188,136.708C46.734,138.833 47.698,140.875 49.302,142.651C49.807,143.214 51.411,144.948 51.505,145.63C51.635,146.563 51.182,146.578 50.464,146.229C49.005,145.521 48.406,145.057 46.724,144.573C38.167,142.583 30.13,148.26 30.13,157.37C30.13,163.458 34.479,169.281 41.141,170.151C45.589,170.672 48.193,169.63 50.526,168.078C53.625,166.026 54.906,163.38 55.708,161.484C56.161,160.417 56.417,159.214 57.042,159.052C57.672,158.891 57.672,159.786 57.698,160.203C57.74,161.151 57.604,162.406 57.563,162.792C57.031,167.854 54.188,176.427 52.063,179.807L67.281,179.807C65.172,176.443 62.328,167.854 61.797,162.792C61.755,162.406 61.62,161.161 61.661,160.203C61.677,159.776 61.677,158.891 62.318,159.052C62.958,159.214 63.198,160.417 63.641,161.484C64.438,163.38 65.734,166.026 68.818,168.078C71.156,169.63 73.771,170.672 78.203,170.151C84.865,169.281 89.219,163.458 89.219,157.37C89.219,148.276 81.167,142.583 72.625,144.573C70.943,145.057 70.339,145.521 68.885,146.229C68.161,146.578 67.708,146.563 67.844,145.63C67.938,144.948 69.536,143.214 70.047,142.651C71.646,140.875 72.609,138.833 73.156,136.708C73.943,133.182 73.693,129.792 71.464,125.969C68.698,121.964 64.625,119.349 59.672,119.401M164.63,119.401C159.667,119.349 155.609,121.964 152.828,125.969C150.599,129.776 150.349,133.172 151.135,136.708C151.682,138.833 152.641,140.875 154.245,142.651C154.75,143.214 156.354,144.948 156.448,145.63C156.583,146.563 156.125,146.578 155.406,146.229C153.953,145.521 153.349,145.057 151.667,144.573C143.109,142.583 135.073,148.26 135.073,157.37C135.073,163.458 139.427,169.281 146.089,170.151C150.521,170.672 153.135,169.63 155.474,168.078C158.573,166.026 159.854,163.38 160.651,161.484C161.109,160.417 161.359,159.214 161.99,159.052C162.615,158.891 162.615,159.786 162.641,160.203C162.682,161.151 162.547,162.406 162.51,162.792C161.974,167.854 159.13,176.427 157.01,179.807L172.255,179.807C170.146,176.443 167.302,167.854 166.766,162.792C166.729,162.406 166.594,161.161 166.635,160.203C166.646,159.776 166.646,158.891 167.286,159.052C167.927,159.214 168.172,160.417 168.609,161.484C169.411,163.38 170.693,166.026 173.792,168.078C176.125,169.63 178.745,170.672 183.177,170.151C189.839,169.281 194.188,163.458 194.188,157.37C194.188,148.276 186.141,142.583 177.594,144.573C175.911,145.057 175.313,145.521 173.854,146.229C173.135,146.578 172.682,146.563 172.818,145.63C172.906,144.948 174.51,143.214 175.016,142.651C176.62,140.875 177.583,138.833 178.13,136.708C178.917,133.182 178.661,129.792 176.432,125.969C173.672,121.964 169.599,119.349 164.63,119.401M59.661,285.542C64.625,285.594 68.682,282.979 71.464,278.969C73.693,275.161 73.943,271.76 73.156,268.234C72.609,266.109 71.646,264.068 70.047,262.292C69.536,261.729 67.938,259.995 67.844,259.313C67.708,258.375 68.161,258.365 68.885,258.708C70.339,259.417 70.943,259.885 72.625,260.365C81.182,262.354 89.219,256.682 89.219,247.573C89.219,241.479 84.865,235.656 78.203,234.792C73.771,234.271 71.156,235.313 68.818,236.859C65.719,238.917 64.438,241.563 63.641,243.458C63.182,244.526 62.932,245.729 62.302,245.891C61.677,246.047 61.661,245.156 61.651,244.74C61.609,243.781 61.745,242.536 61.781,242.151C62.318,237.089 65.161,228.516 67.271,225.135L52.036,225.135C54.146,228.5 56.99,237.089 57.526,242.151C57.563,242.521 57.698,243.781 57.656,244.74C57.646,245.167 57.646,246.047 57.005,245.891C56.365,245.729 56.12,244.526 55.667,243.458C54.865,241.563 53.583,238.917 50.49,236.859C48.151,235.313 45.536,234.271 41.104,234.792C34.443,235.656 30.089,241.495 30.089,247.573C30.089,256.667 38.125,262.354 46.682,260.365C48.365,259.885 48.969,259.417 50.422,258.708C51.141,258.365 51.594,258.375 51.464,259.313C51.37,259.995 49.766,261.729 49.26,262.292C47.656,264.068 46.698,266.109 46.151,268.234C45.359,271.76 45.615,275.151 47.844,278.969C50.609,282.979 54.682,285.594 59.635,285.542M164.594,13.625C159.625,13.573 155.568,16.188 152.792,20.198C150.563,24.005 150.307,27.396 151.094,30.932C151.641,33.057 152.604,35.099 154.203,36.875C154.714,37.438 156.313,39.177 156.406,39.854C156.542,40.792 156.089,40.802 155.365,40.458C153.911,39.75 153.313,39.281 151.63,38.802C143.073,36.813 135.036,42.484 135.036,51.594C135.036,57.688 139.385,63.51 146.047,64.375C150.479,64.896 153.099,63.854 155.432,62.307C158.531,60.25 159.813,57.604 160.615,55.708C161.068,54.641 161.323,53.438 161.948,53.276C162.578,53.12 162.578,54.01 162.604,54.427C162.641,55.375 162.51,56.63 162.469,57.016C161.932,62.078 159.094,70.651 156.969,74.031L172.214,74.031C170.104,70.667 167.26,62.078 166.729,57.016C166.688,56.63 166.552,55.385 166.594,54.427C166.609,54 166.609,53.12 167.25,53.276C167.891,53.438 168.13,54.641 168.568,55.708C169.37,57.604 170.651,60.25 173.75,62.307C176.089,63.854 178.703,64.896 183.135,64.375C189.797,63.51 194.151,57.688 194.151,51.594C194.151,42.484 186.099,36.813 177.552,38.802C175.87,39.281 175.271,39.75 173.818,40.458C173.094,40.802 172.641,40.792 172.776,39.854C172.87,39.177 174.469,37.438 174.979,36.875C176.578,35.099 177.542,33.057 178.089,30.932C178.875,27.406 178.625,24.016 176.391,20.198C173.63,16.188 169.557,13.573 164.594,13.625M164.594,285.542C169.547,285.594 173.615,282.979 176.38,278.969C178.609,275.161 178.865,271.76 178.073,268.234C177.526,266.109 176.568,264.068 174.964,262.292C174.458,261.729 172.854,259.995 172.76,259.313C172.63,258.375 173.083,258.365 173.802,258.708C175.26,259.417 175.859,259.885 177.542,260.365C186.099,262.354 194.135,256.682 194.135,247.573C194.135,241.479 189.781,235.656 183.12,234.792C178.688,234.271 176.073,235.313 173.734,236.859C170.641,238.917 169.359,241.563 168.557,243.458C168.104,244.526 167.849,245.729 167.234,245.891C166.62,246.047 166.594,245.156 166.578,244.74C166.542,243.781 166.672,242.536 166.714,242.151C167.25,237.089 170.094,228.516 172.203,225.135L156.995,225.135C159.104,228.5 161.948,237.089 162.484,242.151C162.521,242.521 162.656,243.781 162.615,244.74C162.604,245.167 162.604,246.047 161.964,245.891C161.323,245.729 161.078,244.526 160.641,243.458C159.839,241.563 158.542,238.917 155.458,236.859C153.125,235.313 150.505,234.271 146.073,234.792C139.411,235.656 135.063,241.495 135.063,247.573C135.063,256.667 143.099,262.354 151.656,260.365C153.339,259.885 153.938,259.417 155.396,258.708C156.115,258.365 156.568,258.375 156.432,259.313C156.344,259.995 154.74,261.729 154.234,262.292C152.63,264.068 151.667,266.109 151.12,268.234C150.333,271.76 150.589,275.151 152.818,278.969C155.578,282.979 159.651,285.594 164.62,285.542M210.943,259.057C206.443,259.031 203.359,253.286 207.927,249.109C208.568,248.453 209.021,248.172 209.156,247.651C209.167,247.302 208.5,247.224 208.151,247.583C206.99,248.802 205.589,249.427 204,249.391C200.958,249.297 198.688,246.906 198.703,243.781C198.995,238.036 206.75,236.422 209.156,241.964C209.406,242.604 209.432,243.005 209.49,243.26C209.62,243.859 210.302,243.938 210.318,243.26C210.318,242.87 210.234,242.323 210.115,241.76C209.729,240.042 207.536,234.953 207.245,234.323L215.057,234.323C214.76,234.953 212.573,240.042 212.198,241.76C212.078,242.323 212,242.87 212,243.26C212,243.953 212.677,243.859 212.823,243.26C212.88,242.99 212.917,242.604 213.161,241.964C215.563,236.432 223.318,238.036 223.615,243.781C223.625,246.906 221.354,249.297 218.313,249.391C216.724,249.443 215.323,248.802 214.161,247.583C213.813,247.224 213.161,247.292 213.161,247.651C213.292,248.172 213.745,248.438 214.385,249.109C218.969,253.286 215.87,259.042 211.37,259.057L210.943,259.057ZM13.333,40.109C17.833,40.135 20.917,45.88 16.354,50.057C15.714,50.714 15.255,50.995 15.125,51.516C15.109,51.865 15.776,51.943 16.125,51.583C17.286,50.365 18.688,49.74 20.276,49.781C23.323,49.87 25.589,52.26 25.578,55.385C25.281,61.13 17.526,62.745 15.125,57.203C14.87,56.563 14.844,56.161 14.792,55.906C14.656,55.307 13.974,55.229 13.964,55.922C13.964,56.307 14.042,56.859 14.161,57.417C14.536,59.141 16.74,64.229 17.031,64.859L9.208,64.859C9.505,64.229 11.693,59.141 12.078,57.417C12.198,56.859 12.281,56.307 12.281,55.922C12.281,55.229 11.599,55.307 11.453,55.906C11.385,56.177 11.359,56.563 11.12,57.203C8.703,62.734 0.948,61.13 0.651,55.385C0.641,52.26 2.922,49.87 5.953,49.781C7.542,49.724 8.943,50.365 10.104,51.583C10.453,51.943 11.104,51.875 11.104,51.516C10.974,50.995 10.516,50.729 9.875,50.057C5.297,45.88 8.396,40.135 12.896,40.109L13.333,40.109ZM18.953,8.443C18.953,12.146 16.766,14.385 13.161,14.385C11.385,14.385 9.917,13.839 8.917,12.839C7.859,11.781 7.37,10.328 7.37,8.406C7.37,7.042 7.823,5.891 8.688,5.026C9.917,3.797 11.839,3.25 13.161,3.25C14.484,3.25 16.406,3.797 17.635,5.078C18.5,5.948 18.953,7.083 18.953,8.458M23.255,23.896C23.255,21.573 22.292,19.328 20.516,17.594C19.969,16.953 19.292,16.458 18.557,16.042C18.917,15.76 19.292,15.495 19.609,15.135C21.25,13.495 22.12,11.208 22.12,8.51C22.12,6.266 21.344,4.302 19.839,2.849C17.823,0.818 15.031,0.083 13.068,0.083C9.599,0.083 4.068,2.365 4.068,8.484C4.068,11.224 4.938,13.505 6.578,15.146C6.901,15.469 7.26,15.734 7.635,16.016C4.99,17.661 2.974,20.448 2.974,23.922C2.974,26.714 4.031,29.266 5.901,31.188C7.766,33.057 10.333,34.021 13.109,33.979C15.896,34.031 18.448,33.016 20.318,31.146C22.188,29.276 23.24,26.714 23.24,23.88M20.089,23.844C20.13,27.865 17.167,30.734 13.146,30.786C11.188,30.786 9.49,30.146 8.167,28.865C6.885,27.583 6.245,25.807 6.297,23.88C6.26,21.958 7.167,20.599 7.943,19.823C9.354,18.458 11.318,17.578 13.146,17.536C14.979,17.536 16.938,18.448 18.26,19.823C19.089,20.599 20.089,21.974 20.089,23.844M201.036,275.286C201.036,277.62 202,279.854 203.776,281.589C204.323,282.229 205,282.724 205.734,283.135C205.375,283.406 205,283.682 204.682,284.047C203.042,285.688 202.172,287.974 202.172,290.672C202.172,292.911 202.948,294.875 204.453,296.333C206.458,298.333 209.25,299.068 211.208,299.068C214.682,299.068 220.208,296.786 220.208,290.672C220.208,287.932 219.339,285.646 217.698,284.005C217.38,283.682 217.016,283.417 216.646,283.135C219.286,281.495 221.302,278.703 221.302,275.229C221.302,272.438 220.25,269.891 218.38,267.964C216.51,266.094 213.948,265.135 211.172,265.172C208.38,265.135 205.828,266.135 203.964,268.005C202.094,269.875 201.036,272.438 201.036,275.271M204.188,275.323C204.146,271.302 207.109,268.432 211.13,268.38C213.094,268.38 214.786,269.021 216.109,270.302C217.391,271.583 218.031,273.359 217.979,275.286C218.021,277.208 217.109,278.568 216.339,279.344C214.922,280.719 212.958,281.589 211.13,281.63C209.302,281.63 207.339,280.719 206.016,279.344C205.188,278.568 204.188,277.193 204.188,275.323" style="fill:rgb(35,31,32);"/>
                                </g>
                            </g>
                        </g>
                    </g>
                    <g>
                        <g>
                            <g>
                                <g>
                                    <path d="M205.323,290.724C205.323,287.026 207.51,284.781 211.115,284.781C212.891,284.781 214.359,285.328 215.359,286.328C216.417,287.385 216.911,288.839 216.911,290.76C216.911,292.141 216.458,293.276 215.589,294.141C214.359,295.37 212.438,295.917 211.115,295.917C209.797,295.917 207.875,295.37 206.646,294.089C205.776,293.219 205.323,292.083 205.323,290.708M112.141,66.51C107.172,66.458 103.115,69.078 100.339,73.083C98.109,76.891 97.854,80.297 98.641,83.823C99.188,85.943 100.151,87.99 101.755,89.766C102.26,90.328 103.859,92.047 103.953,92.745C104.089,93.677 103.635,93.693 102.917,93.344C101.458,92.635 100.859,92.167 99.177,91.688C90.62,89.698 82.583,95.375 82.583,104.484C82.583,110.573 86.932,116.396 93.594,117.266C98.042,117.786 100.646,116.745 102.979,115.193C106.078,113.135 107.359,110.495 108.161,108.594C108.615,107.526 108.87,106.323 109.495,106.167C110.125,106.005 110.125,106.885 110.151,107.313C110.188,108.26 110.057,109.516 110.016,109.906C109.484,114.969 106.641,123.542 104.516,126.922L119.76,126.922C117.651,123.552 114.807,114.969 114.276,109.906C114.234,109.531 114.099,108.276 114.141,107.313C114.156,106.885 114.156,106.005 114.797,106.167C115.438,106.323 115.677,107.526 116.13,108.594C116.932,110.495 118.214,113.135 121.313,115.193C123.646,116.745 126.266,117.786 130.698,117.266C137.359,116.396 141.708,110.573 141.708,104.484C141.708,95.375 133.672,89.698 125.115,91.688C123.432,92.167 122.833,92.635 121.375,93.344C120.656,93.693 120.203,93.677 120.339,92.745C120.427,92.063 122.031,90.328 122.536,89.766C124.141,87.99 125.104,85.943 125.651,83.823C126.438,80.297 126.198,76.901 123.953,73.083C121.193,69.078 117.12,66.458 112.167,66.51M112.167,232.667C117.13,232.719 121.193,230.104 123.969,226.094C126.198,222.292 126.448,218.885 125.661,215.359C125.115,213.234 124.156,211.193 122.552,209.417C122.047,208.854 120.443,207.13 120.349,206.438C120.214,205.5 120.672,205.49 121.391,205.839C122.844,206.542 123.448,207.01 125.13,207.495C133.688,209.484 141.724,203.807 141.724,194.698C141.724,188.609 137.37,182.786 130.708,181.917C126.276,181.396 123.661,182.438 121.323,183.984C118.229,186.042 116.943,188.677 116.146,190.583C115.693,191.651 115.438,192.854 114.807,193.016C114.182,193.177 114.182,192.281 114.156,191.865C114.115,190.906 114.25,189.661 114.286,189.276C114.823,184.214 117.667,175.641 119.786,172.26L104.516,172.26C106.625,175.625 109.469,184.214 110.005,189.276C110.042,189.661 110.177,190.906 110.135,191.865C110.125,192.292 110.125,193.177 109.484,193.016C108.844,192.854 108.599,191.651 108.146,190.583C107.344,188.688 106.063,186.042 102.969,183.984C100.63,182.438 98.016,181.396 93.583,181.917C86.922,182.786 82.568,188.62 82.568,194.698C82.568,203.792 90.604,209.484 99.161,207.495C100.844,207.01 101.448,206.542 102.901,205.839C103.62,205.49 104.078,205.5 103.943,206.438C103.849,207.12 102.245,208.854 101.74,209.417C100.135,211.193 99.177,213.234 98.63,215.359C97.839,218.885 98.083,222.276 100.323,226.094C103.099,230.104 107.161,232.719 112.115,232.667M59.635,13.641C54.682,13.583 50.609,16.203 47.844,20.208C45.615,24.016 45.359,27.406 46.151,30.948C46.698,33.073 47.656,35.115 49.26,36.891C49.766,37.453 51.37,39.188 51.464,39.87C51.594,40.802 51.141,40.818 50.422,40.469C48.969,39.76 48.365,39.297 46.682,38.813C38.125,36.823 30.089,42.5 30.089,51.609C30.089,57.698 34.443,63.521 41.104,64.391C45.547,64.911 48.151,63.87 50.49,62.318C53.583,60.26 54.865,57.62 55.667,55.724C56.12,54.651 56.375,53.453 57.005,53.292C57.63,53.13 57.63,54.026 57.656,54.438C57.698,55.385 57.563,56.646 57.526,57.031C56.99,62.094 54.146,70.667 52.026,74.047L67.281,74.047C65.172,70.682 62.328,62.094 61.797,57.031C61.755,56.646 61.62,55.401 61.661,54.438C61.677,54.01 61.677,53.13 62.318,53.292C62.958,53.453 63.198,54.651 63.641,55.724C64.438,57.62 65.734,60.26 68.818,62.318C71.156,63.87 73.771,64.911 78.203,64.391C84.865,63.521 89.219,57.698 89.219,51.609C89.219,42.5 81.167,36.823 72.625,38.813C70.943,39.297 70.339,39.76 68.885,40.469C68.161,40.818 67.708,40.802 67.844,39.87C67.938,39.188 69.536,37.453 70.047,36.891C71.646,35.115 72.609,33.073 73.156,30.948C73.943,27.422 73.693,24.031 71.464,20.208C68.698,16.203 64.625,13.583 59.672,13.641M59.672,119.401C54.719,119.349 50.651,121.964 47.885,125.969C45.656,129.776 45.401,133.172 46.188,136.708C46.734,138.833 47.698,140.875 49.302,142.651C49.807,143.214 51.411,144.948 51.505,145.63C51.635,146.563 51.182,146.578 50.464,146.229C49.005,145.521 48.406,145.057 46.724,144.573C38.167,142.583 30.13,148.26 30.13,157.37C30.13,163.458 34.479,169.281 41.141,170.151C45.589,170.672 48.193,169.63 50.526,168.078C53.625,166.026 54.906,163.38 55.708,161.484C56.161,160.417 56.417,159.214 57.042,159.052C57.672,158.891 57.672,159.786 57.698,160.203C57.74,161.151 57.604,162.406 57.563,162.792C57.031,167.854 54.188,176.427 52.063,179.807L67.281,179.807C65.172,176.443 62.328,167.854 61.797,162.792C61.755,162.406 61.62,161.161 61.661,160.203C61.677,159.776 61.677,158.891 62.318,159.052C62.958,159.214 63.198,160.417 63.641,161.484C64.438,163.38 65.734,166.026 68.818,168.078C71.156,169.63 73.771,170.672 78.203,170.151C84.865,169.281 89.219,163.458 89.219,157.37C89.219,148.276 81.167,142.583 72.625,144.573C70.943,145.057 70.339,145.521 68.885,146.229C68.161,146.578 67.708,146.563 67.844,145.63C67.938,144.948 69.536,143.214 70.047,142.651C71.646,140.875 72.609,138.833 73.156,136.708C73.943,133.182 73.693,129.792 71.464,125.969C68.698,121.964 64.625,119.349 59.672,119.401M164.63,119.401C159.667,119.349 155.609,121.964 152.828,125.969C150.599,129.776 150.349,133.172 151.135,136.708C151.682,138.833 152.641,140.875 154.245,142.651C154.75,143.214 156.354,144.948 156.448,145.63C156.583,146.563 156.125,146.578 155.406,146.229C153.953,145.521 153.349,145.057 151.667,144.573C143.109,142.583 135.073,148.26 135.073,157.37C135.073,163.458 139.427,169.281 146.089,170.151C150.521,170.672 153.135,169.63 155.474,168.078C158.573,166.026 159.854,163.38 160.651,161.484C161.109,160.417 161.359,159.214 161.99,159.052C162.615,158.891 162.615,159.786 162.641,160.203C162.682,161.151 162.547,162.406 162.51,162.792C161.974,167.854 159.13,176.427 157.01,179.807L172.255,179.807C170.146,176.443 167.302,167.854 166.766,162.792C166.729,162.406 166.594,161.161 166.635,160.203C166.646,159.776 166.646,158.891 167.286,159.052C167.927,159.214 168.172,160.417 168.609,161.484C169.411,163.38 170.693,166.026 173.792,168.078C176.125,169.63 178.745,170.672 183.177,170.151C189.839,169.281 194.188,163.458 194.188,157.37C194.188,148.276 186.141,142.583 177.594,144.573C175.911,145.057 175.313,145.521 173.854,146.229C173.135,146.578 172.682,146.563 172.818,145.63C172.906,144.948 174.51,143.214 175.016,142.651C176.62,140.875 177.583,138.833 178.13,136.708C178.917,133.182 178.661,129.792 176.432,125.969C173.672,121.964 169.599,119.349 164.63,119.401M59.661,285.542C64.625,285.594 68.682,282.979 71.464,278.969C73.693,275.161 73.943,271.76 73.156,268.234C72.609,266.109 71.646,264.068 70.047,262.292C69.536,261.729 67.938,259.995 67.844,259.313C67.708,258.375 68.161,258.365 68.885,258.708C70.339,259.417 70.943,259.885 72.625,260.365C81.182,262.354 89.219,256.682 89.219,247.573C89.219,241.479 84.865,235.656 78.203,234.792C73.771,234.271 71.156,235.313 68.818,236.859C65.719,238.917 64.438,241.563 63.641,243.458C63.182,244.526 62.932,245.729 62.302,245.891C61.677,246.047 61.661,245.156 61.651,244.74C61.609,243.781 61.745,242.536 61.781,242.151C62.318,237.089 65.161,228.516 67.271,225.135L52.036,225.135C54.146,228.5 56.99,237.089 57.526,242.151C57.563,242.521 57.698,243.781 57.656,244.74C57.646,245.167 57.646,246.047 57.005,245.891C56.365,245.729 56.12,244.526 55.667,243.458C54.865,241.563 53.583,238.917 50.49,236.859C48.151,235.313 45.536,234.271 41.104,234.792C34.443,235.656 30.089,241.495 30.089,247.573C30.089,256.667 38.125,262.354 46.682,260.365C48.365,259.885 48.969,259.417 50.422,258.708C51.141,258.365 51.594,258.375 51.464,259.313C51.37,259.995 49.766,261.729 49.26,262.292C47.656,264.068 46.698,266.109 46.151,268.234C45.359,271.76 45.615,275.151 47.844,278.969C50.609,282.979 54.682,285.594 59.635,285.542M164.594,13.625C159.625,13.573 155.568,16.188 152.792,20.198C150.563,24.005 150.307,27.396 151.094,30.932C151.641,33.057 152.604,35.099 154.203,36.875C154.714,37.438 156.313,39.177 156.406,39.854C156.542,40.792 156.089,40.802 155.365,40.458C153.911,39.75 153.313,39.281 151.63,38.802C143.073,36.813 135.036,42.484 135.036,51.594C135.036,57.688 139.385,63.51 146.047,64.375C150.479,64.896 153.099,63.854 155.432,62.307C158.531,60.25 159.813,57.604 160.615,55.708C161.068,54.641 161.323,53.438 161.948,53.276C162.578,53.12 162.578,54.01 162.604,54.427C162.641,55.375 162.51,56.63 162.469,57.016C161.932,62.078 159.094,70.651 156.969,74.031L172.214,74.031C170.104,70.667 167.26,62.078 166.729,57.016C166.688,56.63 166.552,55.385 166.594,54.427C166.609,54 166.609,53.12 167.25,53.276C167.891,53.438 168.13,54.641 168.568,55.708C169.37,57.604 170.651,60.25 173.75,62.307C176.089,63.854 178.703,64.896 183.135,64.375C189.797,63.51 194.151,57.688 194.151,51.594C194.151,42.484 186.099,36.813 177.552,38.802C175.87,39.281 175.271,39.75 173.818,40.458C173.094,40.802 172.641,40.792 172.776,39.854C172.87,39.177 174.469,37.438 174.979,36.875C176.578,35.099 177.542,33.057 178.089,30.932C178.875,27.406 178.625,24.016 176.391,20.198C173.63,16.188 169.557,13.573 164.594,13.625M164.594,285.542C169.547,285.594 173.615,282.979 176.38,278.969C178.609,275.161 178.865,271.76 178.073,268.234C177.526,266.109 176.568,264.068 174.964,262.292C174.458,261.729 172.854,259.995 172.76,259.313C172.63,258.375 173.083,258.365 173.802,258.708C175.26,259.417 175.859,259.885 177.542,260.365C186.099,262.354 194.135,256.682 194.135,247.573C194.135,241.479 189.781,235.656 183.12,234.792C178.688,234.271 176.073,235.313 173.734,236.859C170.641,238.917 169.359,241.563 168.557,243.458C168.104,244.526 167.849,245.729 167.234,245.891C166.62,246.047 166.594,245.156 166.578,244.74C166.542,243.781 166.672,242.536 166.714,242.151C167.25,237.089 170.094,228.516 172.203,225.135L156.995,225.135C159.104,228.5 161.948,237.089 162.484,242.151C162.521,242.521 162.656,243.781 162.615,244.74C162.604,245.167 162.604,246.047 161.964,245.891C161.323,245.729 161.078,244.526 160.641,243.458C159.839,241.563 158.542,238.917 155.458,236.859C153.125,235.313 150.505,234.271 146.073,234.792C139.411,235.656 135.063,241.495 135.063,247.573C135.063,256.667 143.099,262.354 151.656,260.365C153.339,259.885 153.938,259.417 155.396,258.708C156.115,258.365 156.568,258.375 156.432,259.313C156.344,259.995 154.74,261.729 154.234,262.292C152.63,264.068 151.667,266.109 151.12,268.234C150.333,271.76 150.589,275.151 152.818,278.969C155.578,282.979 159.651,285.594 164.62,285.542M210.943,259.057C206.443,259.031 203.359,253.286 207.927,249.109C208.568,248.453 209.021,248.172 209.156,247.651C209.167,247.302 208.5,247.224 208.151,247.583C206.99,248.802 205.589,249.427 204,249.391C200.958,249.297 198.688,246.906 198.703,243.781C198.995,238.036 206.75,236.422 209.156,241.964C209.406,242.604 209.432,243.005 209.49,243.26C209.62,243.859 210.302,243.938 210.318,243.26C210.318,242.87 210.234,242.323 210.115,241.76C209.729,240.042 207.536,234.953 207.245,234.323L215.057,234.323C214.76,234.953 212.573,240.042 212.198,241.76C212.078,242.323 212,242.87 212,243.26C212,243.953 212.677,243.859 212.823,243.26C212.88,242.99 212.917,242.604 213.161,241.964C215.563,236.432 223.318,238.036 223.615,243.781C223.625,246.906 221.354,249.297 218.313,249.391C216.724,249.443 215.323,248.802 214.161,247.583C213.813,247.224 213.161,247.292 213.161,247.651C213.292,248.172 213.745,248.438 214.385,249.109C218.969,253.286 215.87,259.042 211.37,259.057L210.943,259.057ZM13.333,40.109C17.833,40.135 20.917,45.88 16.354,50.057C15.714,50.714 15.255,50.995 15.125,51.516C15.109,51.865 15.776,51.943 16.125,51.583C17.286,50.365 18.688,49.74 20.276,49.781C23.323,49.87 25.589,52.26 25.578,55.385C25.281,61.13 17.526,62.745 15.125,57.203C14.87,56.563 14.844,56.161 14.792,55.906C14.656,55.307 13.974,55.229 13.964,55.922C13.964,56.307 14.042,56.859 14.161,57.417C14.536,59.141 16.74,64.229 17.031,64.859L9.208,64.859C9.505,64.229 11.693,59.141 12.078,57.417C12.198,56.859 12.281,56.307 12.281,55.922C12.281,55.229 11.599,55.307 11.453,55.906C11.385,56.177 11.359,56.563 11.12,57.203C8.703,62.734 0.948,61.13 0.651,55.385C0.641,52.26 2.922,49.87 5.953,49.781C7.542,49.724 8.943,50.365 10.104,51.583C10.453,51.943 11.104,51.875 11.104,51.516C10.974,50.995 10.516,50.729 9.875,50.057C5.297,45.88 8.396,40.135 12.896,40.109L13.333,40.109ZM18.953,8.443C18.953,12.146 16.766,14.385 13.161,14.385C11.385,14.385 9.917,13.839 8.917,12.839C7.859,11.781 7.37,10.328 7.37,8.406C7.37,7.042 7.823,5.891 8.688,5.026C9.917,3.797 11.839,3.25 13.161,3.25C14.484,3.25 16.406,3.797 17.635,5.078C18.5,5.948 18.953,7.083 18.953,8.458M23.255,23.896C23.255,21.573 22.292,19.328 20.516,17.594C19.969,16.953 19.292,16.458 18.557,16.042C18.917,15.76 19.292,15.495 19.609,15.135C21.25,13.495 22.12,11.208 22.12,8.51C22.12,6.266 21.344,4.302 19.839,2.849C17.823,0.818 15.031,0.083 13.068,0.083C9.599,0.083 4.068,2.365 4.068,8.484C4.068,11.224 4.938,13.505 6.578,15.146C6.901,15.469 7.26,15.734 7.635,16.016C4.99,17.661 2.974,20.448 2.974,23.922C2.974,26.714 4.031,29.266 5.901,31.188C7.766,33.057 10.333,34.021 13.109,33.979C15.896,34.031 18.448,33.016 20.318,31.146C22.188,29.276 23.24,26.714 23.24,23.88M20.089,23.844C20.13,27.865 17.167,30.734 13.146,30.786C11.188,30.786 9.49,30.146 8.167,28.865C6.885,27.583 6.245,25.807 6.297,23.88C6.26,21.958 7.167,20.599 7.943,19.823C9.354,18.458 11.318,17.578 13.146,17.536C14.979,17.536 16.938,18.448 18.26,19.823C19.089,20.599 20.089,21.974 20.089,23.844M201.036,275.286C201.036,277.62 202,279.854 203.776,281.589C204.323,282.229 205,282.724 205.734,283.135C205.375,283.406 205,283.682 204.682,284.047C203.042,285.688 202.172,287.974 202.172,290.672C202.172,292.911 202.948,294.875 204.453,296.333C206.458,298.333 209.25,299.068 211.208,299.068C214.682,299.068 220.208,296.786 220.208,290.672C220.208,287.932 219.339,285.646 217.698,284.005C217.38,283.682 217.016,283.417 216.646,283.135C219.286,281.495 221.302,278.703 221.302,275.229C221.302,272.438 220.25,269.891 218.38,267.964C216.51,266.094 213.948,265.135 211.172,265.172C208.38,265.135 205.828,266.135 203.964,268.005C202.094,269.875 201.036,272.438 201.036,275.271M204.188,275.323C204.146,271.302 207.109,268.432 211.13,268.38C213.094,268.38 214.786,269.021 216.109,270.302C217.391,271.583 218.031,273.359 217.979,275.286C218.021,277.208 217.109,278.568 216.339,279.344C214.922,280.719 212.958,281.589 211.13,281.63C209.302,281.63 207.339,280.719 206.016,279.344C205.188,278.568 204.188,277.193 204.188,275.323" style="fill:rgb(35,31,32);"/>
                                </g>
                            </g>
                        </g>
                    </g>
                </g>
            </g>
        </g>
    </g>
</svg>
