<?xml version="1.0" encoding="UTF-8" standalone="no"?>
<!DOCTYPE svg PUBLIC "-//W3C//DTD SVG 1.1//EN" "http://www.w3.org/Graphics/SVG/1.1/DTD/svg11.dtd">
<svg width="240" height="336" viewBox="0 0 240 336" version="1.1" xmlns="http://www.w3.org/2000/svg" xmlns:xlink="http://www.w3.org/1999/xlink" xml:space="preserve" xmlns:serif="http://www.serif.com/" style="fill-rule:evenodd;clip-rule:evenodd;stroke-linejoin:round;stroke-miterlimit:2;">
    <rect x="-24" y="-33.6" width="288" height="403.2" style="fill:white;"/>
    <g>
        <g transform="matrix(1,0,0,1,8,18.6667)">
            <g>
                <g>
                    <g>
                        <g>
                            <g>
                                <g>
                                    <path d="M112.135,119.208C107.172,119.156 103.115,121.766 100.339,125.766C98.109,129.568 97.854,132.969 98.641,136.49C99.188,138.609 100.151,140.651 101.75,142.422C102.26,142.984 103.859,144.719 103.953,145.396C104.089,146.333 103.635,146.344 102.911,146C101.458,145.292 100.859,144.823 99.177,144.344C90.62,142.359 82.583,148.026 82.583,157.12C82.583,163.198 86.932,169.016 93.594,169.88C98.042,170.401 100.646,169.359 102.979,167.813C106.078,165.76 107.359,163.12 108.161,161.224C108.599,160.161 108.87,158.958 109.495,158.797C110.12,158.641 110.12,159.521 110.151,159.948C110.188,160.906 110.057,162.146 110.016,162.531C109.479,167.589 106.635,176.161 104.526,179.521L119.76,179.521C117.651,176.161 114.807,167.589 114.276,162.531C114.234,162.161 114.099,160.906 114.141,159.948C114.156,159.521 114.167,158.641 114.797,158.797C115.422,158.958 115.677,160.161 116.13,161.224C116.932,163.12 118.214,165.76 121.307,167.813C123.646,169.359 126.26,170.401 130.693,169.88C137.354,169.016 141.708,163.188 141.708,157.12C141.708,148.026 133.656,142.359 125.115,144.344C123.432,144.823 122.833,145.292 121.375,146C120.656,146.344 120.203,146.333 120.333,145.396C120.427,144.719 122.031,142.984 122.536,142.422C124.141,140.651 125.099,138.609 125.646,136.49C126.438,132.969 126.198,129.583 123.953,125.766C121.188,121.766 117.12,119.156 112.167,119.208M15.802,34.198C15.802,33.318 15.792,32.234 15.792,31.354L18.005,31.354L17.167,26.276L9.37,26.328C9.089,28.021 8.833,29.714 8.568,31.422L11,31.406L11.01,34.198L2.786,34.198C2.786,33.234 2.776,32.276 2.776,31.318L5.375,31.318L11.276,0.349L14.724,0.349L21.505,31.37L24.026,31.37C24.026,32.276 23.99,33.276 24.016,34.182L15.802,34.198ZM208.474,264.505C208.474,265.385 208.484,266.469 208.484,267.349L206.271,267.349L207.109,272.427L214.906,272.375C215.188,270.682 215.443,268.99 215.708,267.281L213.276,267.292L213.266,264.505L221.49,264.505C221.49,265.469 221.5,266.427 221.5,267.385L218.885,267.385L213,298.349L209.552,298.349L202.771,267.333L200.25,267.333C200.25,266.427 200.276,265.427 200.26,264.521L208.474,264.505ZM211.234,291.698L214.172,275.589L207.911,275.63L211.234,291.698ZM13.042,7.005L10.104,23.115L16.365,23.073L13.042,7.005ZM210.953,258.651C206.458,258.625 203.359,252.891 207.938,248.719C208.578,248.063 209.031,247.786 209.167,247.266C209.182,246.917 208.51,246.839 208.167,247.198C207.005,248.411 205.604,249.052 204.016,249C200.969,248.906 198.698,246.516 198.714,243.396C199.005,237.661 206.766,236.052 209.167,241.583C209.422,242.224 209.448,242.625 209.5,242.875C209.635,243.479 210.313,243.557 210.328,242.875C210.328,242.49 210.25,241.943 210.13,241.385C209.755,239.661 207.552,234.583 207.255,233.958L215.068,233.958C214.776,234.583 212.583,239.661 212.198,241.385C212.078,241.943 211.995,242.49 211.995,242.875C211.995,243.573 212.677,243.479 212.823,242.875C212.88,242.609 212.917,242.224 213.156,241.583C215.563,236.063 223.318,237.661 223.609,243.396C223.625,246.516 221.354,248.906 218.313,249C216.724,249.052 215.323,248.411 214.161,247.198C213.813,246.839 213.156,246.906 213.156,247.266C213.292,247.771 213.745,248.052 214.385,248.719C218.964,252.891 215.87,258.641 211.37,258.651L210.953,258.651ZM13.333,40.052C17.833,40.078 20.932,45.813 16.349,49.984C15.708,50.641 15.255,50.917 15.125,51.438C15.125,51.786 15.776,51.865 16.125,51.505C17.286,50.292 18.688,49.667 20.276,49.703C23.318,49.797 25.589,52.188 25.578,55.307C25.281,61.042 17.526,62.651 15.125,57.12C14.87,56.479 14.844,56.078 14.792,55.823C14.641,55.224 13.974,55.146 13.964,55.823C13.964,56.214 14.042,56.76 14.161,57.318C14.536,59.042 16.74,64.12 17.031,64.745L9.208,64.745C9.5,64.12 11.693,59.042 12.078,57.318C12.198,56.76 12.281,56.214 12.281,55.823C12.281,55.13 11.599,55.214 11.453,55.823C11.396,56.094 11.359,56.479 11.12,57.12C8.703,62.641 0.943,61.042 0.651,55.307C0.635,52.188 2.906,49.797 5.953,49.703C7.542,49.651 8.943,50.292 10.104,51.505C10.448,51.865 11.104,51.797 11.104,51.438C10.969,50.917 10.516,50.651 9.875,49.984C5.297,45.813 8.396,40.078 12.896,40.052L13.333,40.052Z" style="fill:rgb(35,31,32);"/>
                                </g>
                            </g>
                        </g>
                    </g>
                    <g>
                        <g>
                            <g>
                                <g>
                                    <path d="M112.135,119.208C107.172,119.156 103.115,121.766 100.339,125.766C98.109,129.568 97.854,132.969 98.641,136.49C99.188,138.609 100.151,140.651 101.75,142.422C102.26,142.984 103.859,144.719 103.953,145.396C104.089,146.333 103.635,146.344 102.911,146C101.458,145.292 100.859,144.823 99.177,144.344C90.62,142.359 82.583,148.026 82.583,157.12C82.583,163.198 86.932,169.016 93.594,169.88C98.042,170.401 100.646,169.359 102.979,167.813C106.078,165.76 107.359,163.12 108.161,161.224C108.599,160.161 108.87,158.958 109.495,158.797C110.12,158.641 110.12,159.521 110.151,159.948C110.188,160.906 110.057,162.146 110.016,162.531C109.479,167.589 106.635,176.161 104.526,179.521L119.76,179.521C117.651,176.161 114.807,167.589 114.276,162.531C114.234,162.161 114.099,160.906 114.141,159.948C114.156,159.521 114.167,158.641 114.797,158.797C115.422,158.958 115.677,160.161 116.13,161.224C116.932,163.12 118.214,165.76 121.307,167.813C123.646,169.359 126.26,170.401 130.693,169.88C137.354,169.016 141.708,163.188 141.708,157.12C141.708,148.026 133.656,142.359 125.115,144.344C123.432,144.823 122.833,145.292 121.375,146C120.656,146.344 120.203,146.333 120.333,145.396C120.427,144.719 122.031,142.984 122.536,142.422C124.141,140.651 125.099,138.609 125.646,136.49C126.438,132.969 126.198,129.583 123.953,125.766C121.188,121.766 117.12,119.156 112.167,119.208M15.802,34.198C15.802,33.318 15.792,32.234 15.792,31.354L18.005,31.354L17.167,26.276L9.37,26.328C9.089,28.021 8.833,29.714 8.568,31.422L11,31.406L11.01,34.198L2.786,34.198C2.786,33.234 2.776,32.276 2.776,31.318L5.375,31.318L11.276,0.349L14.724,0.349L21.505,31.37L24.026,31.37C24.026,32.276 23.99,33.276 24.016,34.182L15.802,34.198ZM208.474,264.505C208.474,265.385 208.484,266.469 208.484,267.349L206.271,267.349L207.109,272.427L214.906,272.375C215.188,270.682 215.443,268.99 215.708,267.281L213.276,267.292L213.266,264.505L221.49,264.505C221.49,265.469 221.5,266.427 221.5,267.385L218.885,267.385L213,298.349L209.552,298.349L202.771,267.333L200.25,267.333C200.25,266.427 200.276,265.427 200.26,264.521L208.474,264.505ZM211.234,291.698L214.172,275.589L207.911,275.63L211.234,291.698ZM13.042,7.005L10.104,23.115L16.365,23.073L13.042,7.005ZM210.953,258.651C206.458,258.625 203.359,252.891 207.938,248.719C208.578,248.063 209.031,247.786 209.167,247.266C209.182,246.917 208.51,246.839 208.167,247.198C207.005,248.411 205.604,249.052 204.016,249C200.969,248.906 198.698,246.516 198.714,243.396C199.005,237.661 206.766,236.052 209.167,241.583C209.422,242.224 209.448,242.625 209.5,242.875C209.635,243.479 210.313,243.557 210.328,242.875C210.328,242.49 210.25,241.943 210.13,241.385C209.755,239.661 207.552,234.583 207.255,233.958L215.068,233.958C214.776,234.583 212.583,239.661 212.198,241.385C212.078,241.943 211.995,242.49 211.995,242.875C211.995,243.573 212.677,243.479 212.823,242.875C212.88,242.609 212.917,242.224 213.156,241.583C215.563,236.063 223.318,237.661 223.609,243.396C223.625,246.516 221.354,248.906 218.313,249C216.724,249.052 215.323,248.411 214.161,247.198C213.813,246.839 213.156,246.906 213.156,247.266C213.292,247.771 213.745,248.052 214.385,248.719C218.964,252.891 215.87,258.641 211.37,258.651L210.953,258.651ZM13.333,40.052C17.833,40.078 20.932,45.813 16.349,49.984C15.708,50.641 15.255,50.917 15.125,51.438C15.125,51.786 15.776,51.865 16.125,51.505C17.286,50.292 18.688,49.667 20.276,49.703C23.318,49.797 25.589,52.188 25.578,55.307C25.281,61.042 17.526,62.651 15.125,57.12C14.87,56.479 14.844,56.078 14.792,55.823C14.641,55.224 13.974,55.146 13.964,55.823C13.964,56.214 14.042,56.76 14.161,57.318C14.536,59.042 16.74,64.12 17.031,64.745L9.208,64.745C9.5,64.12 11.693,59.042 12.078,57.318C12.198,56.76 12.281,56.214 12.281,55.823C12.281,55.13 11.599,55.214 11.453,55.823C11.396,56.094 11.359,56.479 11.12,57.12C8.703,62.641 0.943,61.042 0.651,55.307C0.635,52.188 2.906,49.797 5.953,49.703C7.542,49.651 8.943,50.292 10.104,51.505C10.448,51.865 11.104,51.797 11.104,51.438C10.969,50.917 10.516,50.651 9.875,49.984C5.297,45.813 8.396,40.078 12.896,40.052L13.333,40.052Z" style="fill:rgb(35,31,32);"/>
                                </g>
                            </g>
                        </g>
                    </g>
                </g>
            </g>
        </g>
    </g>
</svg>
