<?xml version="1.0" encoding="UTF-8" standalone="no"?>
<!DOCTYPE svg PUBLIC "-//W3C//DTD SVG 1.1//EN" "http://www.w3.org/Graphics/SVG/1.1/DTD/svg11.dtd">
<svg width="240" height="336" viewBox="0 0 240 336" version="1.1" xmlns="http://www.w3.org/2000/svg" xmlns:xlink="http://www.w3.org/1999/xlink" xml:space="preserve" xmlns:serif="http://www.serif.com/" style="fill-rule:evenodd;clip-rule:evenodd;stroke-linejoin:round;stroke-miterlimit:2;">
    <rect x="-24" y="-33.6" width="288" height="403.2" style="fill:white;"/>
    <rect x="-24" y="-33.6" width="288" height="403.2" style="fill:white;"/>
    <g>
        <g transform="matrix(1,0,0,1,8,17.3333)">
            <g>
                <g>
                    <g>
                        <g>
                            <g>
                                <g>
                                    <clipPath id="_clip1">
                                        <rect x="0.641" y="1.078" width="223" height="299"/>
                                    </clipPath>
                                    <g clip-path="url(#_clip1)">
                                        <path d="M221.625,299.266L218.151,299.266L218.151,266.542L221.625,266.542L221.625,299.266ZM59.661,85.297C54.693,85.245 50.635,87.854 47.859,91.854C45.63,95.651 45.375,99.052 46.161,102.568C46.708,104.688 47.672,106.724 49.271,108.495C49.781,109.057 51.38,110.776 51.474,111.469C51.609,112.401 51.156,112.417 50.432,112.068C48.979,111.365 48.38,110.896 46.698,110.417C38.141,108.432 30.104,114.094 30.104,123.182C30.104,129.26 34.453,135.068 41.115,135.932C45.563,136.453 48.167,135.417 50.5,133.87C53.599,131.818 54.88,129.177 55.682,127.286C56.12,126.219 56.391,125.021 57.016,124.859C57.646,124.703 57.656,125.594 57.672,126.005C57.698,126.953 57.578,128.208 57.536,128.594C57.005,133.641 54.161,142.198 52.036,145.568L67.281,145.568C65.172,142.214 62.328,133.641 61.781,128.594C61.745,128.219 61.609,126.969 61.651,126.005C61.661,125.583 61.677,124.703 62.302,124.859C62.932,125.021 63.182,126.219 63.641,127.286C64.438,129.177 65.719,131.818 68.818,133.87C71.156,135.417 73.771,136.453 78.203,135.932C84.865,135.068 89.219,129.26 89.219,123.182C89.219,114.109 81.167,108.432 72.625,110.417C70.943,110.896 70.339,111.365 68.885,112.068C68.161,112.417 67.708,112.401 67.844,111.469C67.938,110.792 69.536,109.057 70.047,108.495C71.646,106.724 72.609,104.688 73.156,102.568C73.943,99.052 73.703,95.667 71.464,91.854C68.698,87.854 64.625,85.245 59.672,85.297M164.63,215.849C169.599,215.901 173.656,213.292 176.432,209.292C178.661,205.495 178.917,202.109 178.13,198.578C177.583,196.458 176.62,194.422 175.016,192.651C174.51,192.089 172.906,190.354 172.818,189.677C172.682,188.745 173.135,188.729 173.854,189.078C175.313,189.781 175.911,190.25 177.594,190.729C186.151,192.714 194.188,187.052 194.188,177.964C194.188,171.885 189.839,166.078 183.177,165.214C178.729,164.693 176.125,165.729 173.792,167.276C170.693,169.328 169.411,171.969 168.609,173.859C168.156,174.927 167.901,176.125 167.276,176.286C166.646,176.443 166.635,175.552 166.62,175.141C166.578,174.177 166.714,172.938 166.755,172.552C167.286,167.505 170.13,158.948 172.24,155.578L156.995,155.578C159.104,158.932 161.948,167.505 162.484,172.552C162.521,172.927 162.656,174.177 162.615,175.141C162.604,175.568 162.589,176.443 161.964,176.286C161.333,176.125 161.078,174.927 160.625,173.859C159.828,171.969 158.542,169.328 155.448,167.276C153.109,165.729 150.495,164.693 146.063,165.214C139.401,166.078 135.047,171.885 135.047,177.964C135.047,187.052 143.099,192.714 151.641,190.729C153.323,190.25 153.927,189.781 155.38,189.078C156.099,188.729 156.557,188.745 156.422,189.677C156.328,190.354 154.724,192.089 154.219,192.651C152.615,194.422 151.656,196.458 151.109,198.578C150.318,202.099 150.573,205.479 152.802,209.292C155.568,213.292 159.641,215.901 164.594,215.849M112.141,251.453C117.104,251.505 121.161,248.896 123.943,244.896C126.172,241.099 126.422,237.703 125.635,234.182C125.089,232.068 124.125,230.026 122.526,228.255C122.016,227.693 120.417,225.974 120.323,225.281C120.188,224.349 120.641,224.339 121.365,224.682C122.818,225.391 123.422,225.854 125.104,226.333C133.661,228.323 141.698,222.656 141.698,213.568C141.698,207.495 137.344,201.682 130.682,200.818C126.25,200.297 123.635,201.339 121.297,202.88C118.198,204.932 116.917,207.573 116.12,209.464C115.661,210.531 115.411,211.729 114.781,211.891C114.156,212.052 114.156,211.172 114.13,210.745C114.089,209.797 114.224,208.547 114.26,208.161C114.797,203.109 117.641,194.552 119.75,191.182L104.516,191.182C106.625,194.542 109.469,203.109 110.005,208.161C110.042,208.531 110.177,209.786 110.135,210.745C110.125,211.172 110.109,212.052 109.484,211.891C108.854,211.729 108.599,210.531 108.161,209.464C107.359,207.573 106.078,204.932 102.979,202.88C100.646,201.339 98.026,200.297 93.594,200.818C86.932,201.682 82.583,207.505 82.583,213.568C82.583,222.656 90.63,228.323 99.177,226.333C100.859,225.854 101.458,225.391 102.917,224.682C103.635,224.339 104.089,224.349 103.953,225.281C103.859,225.964 102.26,227.693 101.755,228.255C100.151,230.026 99.188,232.068 98.641,234.182C97.854,237.703 98.094,241.089 100.339,244.896C103.099,248.896 107.172,251.505 112.125,251.453M164.604,286.234C169.573,286.286 173.63,283.677 176.406,279.677C178.635,275.88 178.891,272.495 178.104,268.964C177.552,266.844 176.594,264.807 174.99,263.036C174.484,262.474 172.88,260.745 172.786,260.063C172.656,259.13 173.109,259.115 173.828,259.464C175.286,260.172 175.885,260.635 177.568,261.115C186.125,263.099 194.161,257.438 194.161,248.349C194.161,242.271 189.807,236.464 183.146,235.599C178.703,235.078 176.099,236.115 173.766,237.661C170.667,239.714 169.385,242.354 168.583,244.245C168.13,245.313 167.875,246.51 167.25,246.672C166.62,246.828 166.609,245.938 166.594,245.526C166.552,244.568 166.688,243.328 166.729,242.938C167.26,237.891 170.104,229.323 172.214,225.964L156.995,225.964C159.104,229.323 161.948,237.891 162.484,242.938C162.521,243.313 162.656,244.568 162.615,245.526C162.604,245.953 162.604,246.828 161.964,246.672C161.323,246.51 161.078,245.313 160.625,244.245C159.828,242.354 158.542,239.714 155.448,237.661C153.109,236.115 150.495,235.078 146.063,235.599C139.401,236.464 135.047,242.271 135.047,248.349C135.047,257.422 143.099,263.099 151.641,261.115C153.323,260.635 153.927,260.172 155.38,259.464C156.099,259.115 156.557,259.13 156.422,260.063C156.328,260.745 154.724,262.474 154.219,263.036C152.615,264.807 151.656,266.844 151.109,268.964C150.318,272.484 150.573,275.865 152.802,279.677C155.568,283.677 159.641,286.286 164.594,286.234M59.635,286.234C64.599,286.286 68.656,283.677 71.432,279.677C73.661,275.88 73.917,272.495 73.13,268.964C72.583,266.844 71.62,264.807 70.021,263.036C69.51,262.474 67.911,260.745 67.818,260.063C67.682,259.13 68.135,259.115 68.859,259.464C70.313,260.172 70.911,260.635 72.594,261.115C81.151,263.099 89.193,257.438 89.193,248.349C89.193,242.271 84.839,236.464 78.177,235.599C73.729,235.078 71.125,236.115 68.792,237.661C65.693,239.714 64.411,242.354 63.609,244.245C63.156,245.313 62.906,246.51 62.276,246.672C61.651,246.828 61.651,245.938 61.62,245.526C61.583,244.568 61.714,243.328 61.755,242.938C62.292,237.891 65.135,229.323 67.255,225.964L52.036,225.964C54.146,229.323 56.99,237.891 57.536,242.938C57.578,243.313 57.708,244.568 57.672,245.526C57.656,245.953 57.646,246.828 57.016,246.672C56.391,246.51 56.135,245.313 55.693,244.245C54.896,242.354 53.615,239.714 50.516,237.661C48.177,236.115 45.563,235.078 41.13,235.599C34.469,236.464 30.115,242.271 30.115,248.349C30.115,257.422 38.167,263.099 46.708,261.115C48.391,260.635 48.995,260.172 50.448,259.464C51.167,259.115 51.625,259.13 51.49,260.063C51.396,260.745 49.792,262.474 49.286,263.036C47.682,264.807 46.724,266.844 46.177,268.964C45.391,272.484 45.63,275.865 47.87,279.677C50.651,283.677 54.708,286.286 59.661,286.234M59.661,215.859C64.625,215.917 68.682,213.302 71.464,209.307C73.693,205.505 73.943,202.125 73.156,198.594C72.609,196.474 71.646,194.432 70.047,192.661C69.536,192.104 67.938,190.37 67.844,189.693C67.708,188.755 68.161,188.745 68.885,189.089C70.339,189.797 70.943,190.266 72.625,190.745C81.182,192.729 89.219,187.068 89.219,177.979C89.219,171.901 84.865,166.089 78.203,165.224C73.755,164.703 71.156,165.745 68.818,167.292C65.719,169.344 64.438,171.979 63.641,173.875C63.182,174.938 62.932,176.141 62.302,176.297C61.677,176.458 61.677,175.568 61.651,175.151C61.62,174.193 61.745,172.953 61.781,172.568C62.318,167.516 65.161,158.964 67.281,155.589L52.036,155.589C54.146,158.948 56.99,167.516 57.536,172.568C57.578,172.938 57.708,174.193 57.672,175.151C57.656,175.578 57.646,176.458 57.016,176.297C56.391,176.141 56.135,174.938 55.693,173.875C54.896,171.979 53.615,169.344 50.516,167.292C48.177,165.745 45.563,164.703 41.13,165.224C34.469,166.089 30.115,171.901 30.115,177.979C30.115,187.068 38.167,192.729 46.708,190.745C48.391,190.266 48.995,189.797 50.448,189.089C51.167,188.745 51.625,188.755 51.49,189.693C51.396,190.37 49.792,192.104 49.286,192.661C47.682,194.432 46.724,196.474 46.177,198.594C45.391,202.109 45.63,205.495 47.87,209.307C50.651,213.302 54.708,215.917 59.661,215.859M112.141,49.703C107.188,49.651 103.115,52.266 100.349,56.26C98.12,60.057 97.87,63.458 98.656,66.974C99.203,69.094 100.161,71.13 101.766,72.906C102.271,73.464 103.875,75.182 103.969,75.875C104.104,76.807 103.646,76.823 102.927,76.474C101.474,75.771 100.87,75.302 99.188,74.823C90.63,72.839 82.594,78.5 82.594,87.589C82.594,93.667 86.948,99.474 93.609,100.344C98.052,100.859 100.656,99.823 102.995,98.276C106.094,96.224 107.375,93.599 108.172,91.693C108.63,90.63 108.88,89.427 109.51,89.271C110.135,89.109 110.135,89.99 110.161,90.417C110.203,91.359 110.068,92.615 110.031,93C109.495,98.052 106.651,106.604 104.542,109.974L119.76,109.974C117.651,106.62 114.807,98.052 114.276,93C114.234,92.615 114.099,91.375 114.141,90.417C114.156,89.99 114.167,89.109 114.797,89.271C115.422,89.427 115.677,90.63 116.13,91.693C116.932,93.589 118.229,96.224 121.313,98.276C123.646,99.823 126.266,100.859 130.698,100.344C137.359,99.474 141.708,93.651 141.708,87.589C141.708,78.516 133.661,72.839 125.115,74.823C123.432,75.302 122.833,75.771 121.375,76.474C120.656,76.823 120.203,76.807 120.339,75.875C120.427,75.198 122.031,73.479 122.536,72.906C124.141,71.13 125.104,69.094 125.651,66.974C126.438,63.458 126.198,60.073 123.953,56.26C121.193,52.266 117.12,49.651 112.151,49.703M59.661,14.927C54.693,14.87 50.635,17.484 47.859,21.479C45.63,25.281 45.375,28.677 46.161,32.193C46.708,34.313 47.672,36.354 49.271,38.125C49.781,38.682 51.38,40.401 51.474,41.099C51.609,42.031 51.156,42.042 50.432,41.698C48.979,40.99 48.38,40.526 46.698,40.042C38.141,38.057 30.104,43.724 30.104,52.807C30.104,58.885 34.453,64.698 41.115,65.563C45.563,66.083 48.167,65.042 50.5,63.495C53.599,61.443 54.88,58.807 55.682,56.911C56.12,55.849 56.391,54.651 57.016,54.49C57.646,54.328 57.646,55.208 57.672,55.635C57.708,56.583 57.578,57.833 57.536,58.219C57.005,63.271 54.161,71.823 52.036,75.198L67.281,75.198C65.172,71.839 62.328,63.271 61.781,58.219C61.745,57.849 61.609,56.594 61.651,55.635C61.661,55.208 61.677,54.328 62.302,54.49C62.932,54.651 63.182,55.849 63.641,56.911C64.438,58.807 65.719,61.443 68.818,63.495C71.156,65.042 73.771,66.083 78.203,65.563C84.865,64.698 89.219,58.885 89.219,52.807C89.219,43.724 81.167,38.057 72.625,40.042C70.943,40.526 70.339,40.99 68.885,41.698C68.161,42.042 67.708,42.031 67.844,41.099C67.938,40.417 69.536,38.682 70.047,38.125C71.646,36.354 72.609,34.313 73.156,32.193C73.943,28.677 73.703,25.292 71.464,21.479C68.698,17.484 64.625,14.87 59.672,14.927M164.63,14.927C159.667,14.87 155.609,17.484 152.828,21.479C150.599,25.281 150.349,28.677 151.135,32.193C151.682,34.313 152.641,36.354 154.245,38.125C154.75,38.682 156.354,40.401 156.448,41.099C156.583,42.031 156.125,42.042 155.406,41.698C153.953,40.99 153.349,40.526 151.667,40.042C143.109,38.057 135.073,43.724 135.073,52.807C135.073,58.885 139.427,64.698 146.089,65.563C150.536,66.083 153.135,65.042 155.474,63.495C158.573,61.443 159.854,58.807 160.651,56.911C161.109,55.849 161.359,54.651 161.99,54.49C162.615,54.328 162.615,55.208 162.641,55.635C162.682,56.583 162.547,57.833 162.51,58.219C161.974,63.271 159.13,71.823 157.021,75.198L172.266,75.198C170.156,71.839 167.313,63.271 166.766,58.219C166.729,57.849 166.594,56.594 166.635,55.635C166.646,55.208 166.646,54.328 167.286,54.49C167.927,54.651 168.172,55.849 168.625,56.911C169.422,58.807 170.708,61.443 173.802,63.495C176.141,65.042 178.755,66.083 183.188,65.563C189.849,64.698 194.203,58.885 194.203,52.807C194.203,43.724 186.151,38.057 177.609,40.042C175.927,40.526 175.323,40.99 173.87,41.698C173.151,42.042 172.693,42.031 172.828,41.099C172.922,40.417 174.526,38.682 175.031,38.125C176.635,36.354 177.594,34.313 178.141,32.193C178.927,28.677 178.688,25.292 176.448,21.479C173.682,17.484 169.609,14.87 164.646,14.927M164.646,85.297C159.677,85.245 155.62,87.854 152.844,91.854C150.615,95.651 150.359,99.052 151.146,102.568C151.698,104.688 152.656,106.724 154.26,108.495C154.766,109.057 156.37,110.776 156.464,111.469C156.594,112.401 156.141,112.417 155.422,112.068C153.964,111.365 153.365,110.896 151.682,110.417C143.125,108.432 135.089,114.094 135.089,123.182C135.089,129.26 139.438,135.068 146.104,135.932C150.547,136.453 153.151,135.417 155.484,133.87C158.583,131.818 159.865,129.177 160.667,127.286C161.12,126.219 161.375,125.021 162,124.859C162.63,124.703 162.63,125.594 162.656,126.005C162.698,126.953 162.563,128.208 162.521,128.594C161.99,133.641 159.146,142.198 157.036,145.568L172.281,145.568C170.172,142.214 167.328,133.641 166.781,128.594C166.74,128.219 166.609,126.969 166.646,126.005C166.661,125.583 166.672,124.703 167.302,124.859C167.927,125.021 168.182,126.219 168.635,127.286C169.438,129.177 170.719,131.818 173.818,133.87C176.151,135.417 178.771,136.453 183.203,135.932C189.865,135.068 194.214,129.26 194.214,123.182C194.214,114.109 186.167,108.432 177.62,110.417C175.938,110.896 175.339,111.365 173.885,112.068C173.161,112.417 172.708,112.401 172.844,111.469C172.938,110.792 174.536,109.057 175.047,108.495C176.646,106.724 177.609,104.688 178.156,102.568C178.943,99.052 178.703,95.667 176.458,91.854C173.698,87.854 169.625,85.245 164.656,85.297M210.984,259.797C206.484,259.771 203.401,254.042 207.964,249.87C208.604,249.214 209.063,248.938 209.193,248.417C209.208,248.068 208.542,247.99 208.193,248.349C207.031,249.563 205.63,250.188 204.042,250.151C200.995,250.057 198.729,247.672 198.74,244.552C199.036,238.823 206.792,237.208 209.193,242.74C209.448,243.38 209.474,243.781 209.526,244.031C209.677,244.63 210.354,244.714 210.354,244.031C210.354,243.646 210.276,243.099 210.156,242.542C209.781,240.823 207.578,235.745 207.286,235.12L215.094,235.12C214.802,235.745 212.609,240.823 212.224,242.542C212.104,243.099 212.026,243.646 212.026,244.031C212.026,244.724 212.703,244.63 212.854,244.031C212.917,243.766 212.948,243.38 213.188,242.74C215.589,237.224 223.344,238.823 223.641,244.552C223.651,247.672 221.37,250.057 218.339,250.151C216.75,250.203 215.349,249.563 214.188,248.349C213.839,247.99 213.188,248.057 213.188,248.417C213.318,248.938 213.771,249.203 214.411,249.87C218.995,254.042 215.896,259.781 211.396,259.797L210.984,259.797ZM13.333,41.349C17.833,41.375 20.932,47.104 16.354,51.276C15.714,51.932 15.255,52.208 15.125,52.729C15.109,53.078 15.776,53.156 16.125,52.797C17.271,51.583 18.688,50.958 20.276,50.995C23.323,51.089 25.589,53.474 25.578,56.594C25.281,62.323 17.526,63.938 15.125,58.406C14.87,57.766 14.844,57.365 14.792,57.115C14.656,56.516 13.974,56.432 13.964,57.115C13.964,57.5 14.042,58.047 14.161,58.604C14.536,60.323 16.74,65.401 17.021,66.031L9.208,66.031C9.505,65.401 11.693,60.323 12.068,58.604C12.188,58.047 12.266,57.5 12.266,57.115C12.266,56.422 11.589,56.5 11.438,57.115C11.375,57.38 11.344,57.766 11.104,58.406C8.703,63.938 0.948,62.323 0.651,56.594C0.641,53.474 2.906,51.089 5.953,50.995C7.542,50.943 8.943,51.583 10.104,52.797C10.453,53.156 11.104,53.089 11.104,52.729C10.974,52.208 10.516,51.943 9.875,51.276C5.297,47.104 8.396,41.375 12.896,41.349L13.333,41.349ZM207.885,296.573C209.302,296.536 210.302,296.255 210.807,295.76C211.37,295.214 211.583,294.219 211.583,292.297L211.583,273.964C211.583,272.042 211.359,271.042 210.807,270.495C210.302,269.99 209.302,269.724 207.885,269.724C206.469,269.724 205.469,270.005 204.964,270.495C204.401,271.042 204.188,272.042 204.188,273.964L204.188,292.286C204.188,294.203 204.417,295.203 204.964,295.75C205.469,296.255 206.469,296.521 207.885,296.563M207.885,266.26C210.302,266.26 212.094,266.844 213.281,268.031C214.828,269.63 215.068,271.818 215.068,273.964L215.068,292.286C215.068,294.604 215.068,300.078 207.885,300.026C200.703,300.068 200.703,294.604 200.703,292.286L200.703,273.964C200.703,271.818 200.943,269.63 202.495,268.031C203.682,266.844 205.458,266.26 207.885,266.26M2.656,1.906L6.125,1.906L6.125,34.62L2.656,34.62L2.656,1.906ZM16.391,4.583C14.979,4.625 13.974,4.906 13.469,5.411C12.906,5.958 12.693,6.958 12.693,8.875L12.693,27.198C12.693,29.115 12.922,30.115 13.469,30.661C13.974,31.167 14.979,31.438 16.391,31.438C17.807,31.438 18.807,31.156 19.318,30.661C19.875,30.115 20.089,29.115 20.089,27.198L20.089,8.875C20.089,6.958 19.865,5.958 19.318,5.411C18.807,4.906 17.807,4.635 16.391,4.583M16.391,34.885C13.974,34.885 12.188,34.286 11,33.115C9.448,31.516 9.208,29.328 9.208,27.182L9.208,8.875C9.224,6.542 9.224,1.078 16.391,1.12C23.573,1.078 23.573,6.542 23.573,8.875L23.573,27.198C23.573,29.344 23.333,31.531 21.786,33.13C20.599,34.313 18.823,34.901 16.391,34.901" style="fill:rgb(35,31,32);"/>
                                    </g>
                                </g>
                            </g>
                        </g>
                    </g>
                    <g>
                        <g>
                            <g>
                                <g>
                                    <clipPath id="_clip2">
                                        <rect x="0.641" y="1.078" width="223" height="299"/>
                                    </clipPath>
                                    <g clip-path="url(#_clip2)">
                                        <path d="M221.625,299.266L218.151,299.266L218.151,266.542L221.625,266.542L221.625,299.266ZM59.661,85.297C54.693,85.245 50.635,87.854 47.859,91.854C45.63,95.651 45.375,99.052 46.161,102.568C46.708,104.688 47.672,106.724 49.271,108.495C49.781,109.057 51.38,110.776 51.474,111.469C51.609,112.401 51.156,112.417 50.432,112.068C48.979,111.365 48.38,110.896 46.698,110.417C38.141,108.432 30.104,114.094 30.104,123.182C30.104,129.26 34.453,135.068 41.115,135.932C45.563,136.453 48.167,135.417 50.5,133.87C53.599,131.818 54.88,129.177 55.682,127.286C56.12,126.219 56.391,125.021 57.016,124.859C57.646,124.703 57.656,125.594 57.672,126.005C57.698,126.953 57.578,128.208 57.536,128.594C57.005,133.641 54.161,142.198 52.036,145.568L67.281,145.568C65.172,142.214 62.328,133.641 61.781,128.594C61.745,128.219 61.609,126.969 61.651,126.005C61.661,125.583 61.677,124.703 62.302,124.859C62.932,125.021 63.182,126.219 63.641,127.286C64.438,129.177 65.719,131.818 68.818,133.87C71.156,135.417 73.771,136.453 78.203,135.932C84.865,135.068 89.219,129.26 89.219,123.182C89.219,114.109 81.167,108.432 72.625,110.417C70.943,110.896 70.339,111.365 68.885,112.068C68.161,112.417 67.708,112.401 67.844,111.469C67.938,110.792 69.536,109.057 70.047,108.495C71.646,106.724 72.609,104.688 73.156,102.568C73.943,99.052 73.703,95.667 71.464,91.854C68.698,87.854 64.625,85.245 59.672,85.297M164.63,215.849C169.599,215.901 173.656,213.292 176.432,209.292C178.661,205.495 178.917,202.109 178.13,198.578C177.583,196.458 176.62,194.422 175.016,192.651C174.51,192.089 172.906,190.354 172.818,189.677C172.682,188.745 173.135,188.729 173.854,189.078C175.313,189.781 175.911,190.25 177.594,190.729C186.151,192.714 194.188,187.052 194.188,177.964C194.188,171.885 189.839,166.078 183.177,165.214C178.729,164.693 176.125,165.729 173.792,167.276C170.693,169.328 169.411,171.969 168.609,173.859C168.156,174.927 167.901,176.125 167.276,176.286C166.646,176.443 166.635,175.552 166.62,175.141C166.578,174.177 166.714,172.938 166.755,172.552C167.286,167.505 170.13,158.948 172.24,155.578L156.995,155.578C159.104,158.932 161.948,167.505 162.484,172.552C162.521,172.927 162.656,174.177 162.615,175.141C162.604,175.568 162.589,176.443 161.964,176.286C161.333,176.125 161.078,174.927 160.625,173.859C159.828,171.969 158.542,169.328 155.448,167.276C153.109,165.729 150.495,164.693 146.063,165.214C139.401,166.078 135.047,171.885 135.047,177.964C135.047,187.052 143.099,192.714 151.641,190.729C153.323,190.25 153.927,189.781 155.38,189.078C156.099,188.729 156.557,188.745 156.422,189.677C156.328,190.354 154.724,192.089 154.219,192.651C152.615,194.422 151.656,196.458 151.109,198.578C150.318,202.099 150.573,205.479 152.802,209.292C155.568,213.292 159.641,215.901 164.594,215.849M112.141,251.453C117.104,251.505 121.161,248.896 123.943,244.896C126.172,241.099 126.422,237.703 125.635,234.182C125.089,232.068 124.125,230.026 122.526,228.255C122.016,227.693 120.417,225.974 120.323,225.281C120.188,224.349 120.641,224.339 121.365,224.682C122.818,225.391 123.422,225.854 125.104,226.333C133.661,228.323 141.698,222.656 141.698,213.568C141.698,207.495 137.344,201.682 130.682,200.818C126.25,200.297 123.635,201.339 121.297,202.88C118.198,204.932 116.917,207.573 116.12,209.464C115.661,210.531 115.411,211.729 114.781,211.891C114.156,212.052 114.156,211.172 114.13,210.745C114.089,209.797 114.224,208.547 114.26,208.161C114.797,203.109 117.641,194.552 119.75,191.182L104.516,191.182C106.625,194.542 109.469,203.109 110.005,208.161C110.042,208.531 110.177,209.786 110.135,210.745C110.125,211.172 110.109,212.052 109.484,211.891C108.854,211.729 108.599,210.531 108.161,209.464C107.359,207.573 106.078,204.932 102.979,202.88C100.646,201.339 98.026,200.297 93.594,200.818C86.932,201.682 82.583,207.505 82.583,213.568C82.583,222.656 90.63,228.323 99.177,226.333C100.859,225.854 101.458,225.391 102.917,224.682C103.635,224.339 104.089,224.349 103.953,225.281C103.859,225.964 102.26,227.693 101.755,228.255C100.151,230.026 99.188,232.068 98.641,234.182C97.854,237.703 98.094,241.089 100.339,244.896C103.099,248.896 107.172,251.505 112.125,251.453M164.604,286.234C169.573,286.286 173.63,283.677 176.406,279.677C178.635,275.88 178.891,272.495 178.104,268.964C177.552,266.844 176.594,264.807 174.99,263.036C174.484,262.474 172.88,260.745 172.786,260.063C172.656,259.13 173.109,259.115 173.828,259.464C175.286,260.172 175.885,260.635 177.568,261.115C186.125,263.099 194.161,257.438 194.161,248.349C194.161,242.271 189.807,236.464 183.146,235.599C178.703,235.078 176.099,236.115 173.766,237.661C170.667,239.714 169.385,242.354 168.583,244.245C168.13,245.313 167.875,246.51 167.25,246.672C166.62,246.828 166.609,245.938 166.594,245.526C166.552,244.568 166.688,243.328 166.729,242.938C167.26,237.891 170.104,229.323 172.214,225.964L156.995,225.964C159.104,229.323 161.948,237.891 162.484,242.938C162.521,243.313 162.656,244.568 162.615,245.526C162.604,245.953 162.604,246.828 161.964,246.672C161.323,246.51 161.078,245.313 160.625,244.245C159.828,242.354 158.542,239.714 155.448,237.661C153.109,236.115 150.495,235.078 146.063,235.599C139.401,236.464 135.047,242.271 135.047,248.349C135.047,257.422 143.099,263.099 151.641,261.115C153.323,260.635 153.927,260.172 155.38,259.464C156.099,259.115 156.557,259.13 156.422,260.063C156.328,260.745 154.724,262.474 154.219,263.036C152.615,264.807 151.656,266.844 151.109,268.964C150.318,272.484 150.573,275.865 152.802,279.677C155.568,283.677 159.641,286.286 164.594,286.234M59.635,286.234C64.599,286.286 68.656,283.677 71.432,279.677C73.661,275.88 73.917,272.495 73.13,268.964C72.583,266.844 71.62,264.807 70.021,263.036C69.51,262.474 67.911,260.745 67.818,260.063C67.682,259.13 68.135,259.115 68.859,259.464C70.313,260.172 70.911,260.635 72.594,261.115C81.151,263.099 89.193,257.438 89.193,248.349C89.193,242.271 84.839,236.464 78.177,235.599C73.729,235.078 71.125,236.115 68.792,237.661C65.693,239.714 64.411,242.354 63.609,244.245C63.156,245.313 62.906,246.51 62.276,246.672C61.651,246.828 61.651,245.938 61.62,245.526C61.583,244.568 61.714,243.328 61.755,242.938C62.292,237.891 65.135,229.323 67.255,225.964L52.036,225.964C54.146,229.323 56.99,237.891 57.536,242.938C57.578,243.313 57.708,244.568 57.672,245.526C57.656,245.953 57.646,246.828 57.016,246.672C56.391,246.51 56.135,245.313 55.693,244.245C54.896,242.354 53.615,239.714 50.516,237.661C48.177,236.115 45.563,235.078 41.13,235.599C34.469,236.464 30.115,242.271 30.115,248.349C30.115,257.422 38.167,263.099 46.708,261.115C48.391,260.635 48.995,260.172 50.448,259.464C51.167,259.115 51.625,259.13 51.49,260.063C51.396,260.745 49.792,262.474 49.286,263.036C47.682,264.807 46.724,266.844 46.177,268.964C45.391,272.484 45.63,275.865 47.87,279.677C50.651,283.677 54.708,286.286 59.661,286.234M59.661,215.859C64.625,215.917 68.682,213.302 71.464,209.307C73.693,205.505 73.943,202.125 73.156,198.594C72.609,196.474 71.646,194.432 70.047,192.661C69.536,192.104 67.938,190.37 67.844,189.693C67.708,188.755 68.161,188.745 68.885,189.089C70.339,189.797 70.943,190.266 72.625,190.745C81.182,192.729 89.219,187.068 89.219,177.979C89.219,171.901 84.865,166.089 78.203,165.224C73.755,164.703 71.156,165.745 68.818,167.292C65.719,169.344 64.438,171.979 63.641,173.875C63.182,174.938 62.932,176.141 62.302,176.297C61.677,176.458 61.677,175.568 61.651,175.151C61.62,174.193 61.745,172.953 61.781,172.568C62.318,167.516 65.161,158.964 67.281,155.589L52.036,155.589C54.146,158.948 56.99,167.516 57.536,172.568C57.578,172.938 57.708,174.193 57.672,175.151C57.656,175.578 57.646,176.458 57.016,176.297C56.391,176.141 56.135,174.938 55.693,173.875C54.896,171.979 53.615,169.344 50.516,167.292C48.177,165.745 45.563,164.703 41.13,165.224C34.469,166.089 30.115,171.901 30.115,177.979C30.115,187.068 38.167,192.729 46.708,190.745C48.391,190.266 48.995,189.797 50.448,189.089C51.167,188.745 51.625,188.755 51.49,189.693C51.396,190.37 49.792,192.104 49.286,192.661C47.682,194.432 46.724,196.474 46.177,198.594C45.391,202.109 45.63,205.495 47.87,209.307C50.651,213.302 54.708,215.917 59.661,215.859M112.141,49.703C107.188,49.651 103.115,52.266 100.349,56.26C98.12,60.057 97.87,63.458 98.656,66.974C99.203,69.094 100.161,71.13 101.766,72.906C102.271,73.464 103.875,75.182 103.969,75.875C104.104,76.807 103.646,76.823 102.927,76.474C101.474,75.771 100.87,75.302 99.188,74.823C90.63,72.839 82.594,78.5 82.594,87.589C82.594,93.667 86.948,99.474 93.609,100.344C98.052,100.859 100.656,99.823 102.995,98.276C106.094,96.224 107.375,93.599 108.172,91.693C108.63,90.63 108.88,89.427 109.51,89.271C110.135,89.109 110.135,89.99 110.161,90.417C110.203,91.359 110.068,92.615 110.031,93C109.495,98.052 106.651,106.604 104.542,109.974L119.76,109.974C117.651,106.62 114.807,98.052 114.276,93C114.234,92.615 114.099,91.375 114.141,90.417C114.156,89.99 114.167,89.109 114.797,89.271C115.422,89.427 115.677,90.63 116.13,91.693C116.932,93.589 118.229,96.224 121.313,98.276C123.646,99.823 126.266,100.859 130.698,100.344C137.359,99.474 141.708,93.651 141.708,87.589C141.708,78.516 133.661,72.839 125.115,74.823C123.432,75.302 122.833,75.771 121.375,76.474C120.656,76.823 120.203,76.807 120.339,75.875C120.427,75.198 122.031,73.479 122.536,72.906C124.141,71.13 125.104,69.094 125.651,66.974C126.438,63.458 126.198,60.073 123.953,56.26C121.193,52.266 117.12,49.651 112.151,49.703M59.661,14.927C54.693,14.87 50.635,17.484 47.859,21.479C45.63,25.281 45.375,28.677 46.161,32.193C46.708,34.313 47.672,36.354 49.271,38.125C49.781,38.682 51.38,40.401 51.474,41.099C51.609,42.031 51.156,42.042 50.432,41.698C48.979,40.99 48.38,40.526 46.698,40.042C38.141,38.057 30.104,43.724 30.104,52.807C30.104,58.885 34.453,64.698 41.115,65.563C45.563,66.083 48.167,65.042 50.5,63.495C53.599,61.443 54.88,58.807 55.682,56.911C56.12,55.849 56.391,54.651 57.016,54.49C57.646,54.328 57.646,55.208 57.672,55.635C57.708,56.583 57.578,57.833 57.536,58.219C57.005,63.271 54.161,71.823 52.036,75.198L67.281,75.198C65.172,71.839 62.328,63.271 61.781,58.219C61.745,57.849 61.609,56.594 61.651,55.635C61.661,55.208 61.677,54.328 62.302,54.49C62.932,54.651 63.182,55.849 63.641,56.911C64.438,58.807 65.719,61.443 68.818,63.495C71.156,65.042 73.771,66.083 78.203,65.563C84.865,64.698 89.219,58.885 89.219,52.807C89.219,43.724 81.167,38.057 72.625,40.042C70.943,40.526 70.339,40.99 68.885,41.698C68.161,42.042 67.708,42.031 67.844,41.099C67.938,40.417 69.536,38.682 70.047,38.125C71.646,36.354 72.609,34.313 73.156,32.193C73.943,28.677 73.703,25.292 71.464,21.479C68.698,17.484 64.625,14.87 59.672,14.927M164.63,14.927C159.667,14.87 155.609,17.484 152.828,21.479C150.599,25.281 150.349,28.677 151.135,32.193C151.682,34.313 152.641,36.354 154.245,38.125C154.75,38.682 156.354,40.401 156.448,41.099C156.583,42.031 156.125,42.042 155.406,41.698C153.953,40.99 153.349,40.526 151.667,40.042C143.109,38.057 135.073,43.724 135.073,52.807C135.073,58.885 139.427,64.698 146.089,65.563C150.536,66.083 153.135,65.042 155.474,63.495C158.573,61.443 159.854,58.807 160.651,56.911C161.109,55.849 161.359,54.651 161.99,54.49C162.615,54.328 162.615,55.208 162.641,55.635C162.682,56.583 162.547,57.833 162.51,58.219C161.974,63.271 159.13,71.823 157.021,75.198L172.266,75.198C170.156,71.839 167.313,63.271 166.766,58.219C166.729,57.849 166.594,56.594 166.635,55.635C166.646,55.208 166.646,54.328 167.286,54.49C167.927,54.651 168.172,55.849 168.625,56.911C169.422,58.807 170.708,61.443 173.802,63.495C176.141,65.042 178.755,66.083 183.188,65.563C189.849,64.698 194.203,58.885 194.203,52.807C194.203,43.724 186.151,38.057 177.609,40.042C175.927,40.526 175.323,40.99 173.87,41.698C173.151,42.042 172.693,42.031 172.828,41.099C172.922,40.417 174.526,38.682 175.031,38.125C176.635,36.354 177.594,34.313 178.141,32.193C178.927,28.677 178.688,25.292 176.448,21.479C173.682,17.484 169.609,14.87 164.646,14.927M164.646,85.297C159.677,85.245 155.62,87.854 152.844,91.854C150.615,95.651 150.359,99.052 151.146,102.568C151.698,104.688 152.656,106.724 154.26,108.495C154.766,109.057 156.37,110.776 156.464,111.469C156.594,112.401 156.141,112.417 155.422,112.068C153.964,111.365 153.365,110.896 151.682,110.417C143.125,108.432 135.089,114.094 135.089,123.182C135.089,129.26 139.438,135.068 146.104,135.932C150.547,136.453 153.151,135.417 155.484,133.87C158.583,131.818 159.865,129.177 160.667,127.286C161.12,126.219 161.375,125.021 162,124.859C162.63,124.703 162.63,125.594 162.656,126.005C162.698,126.953 162.563,128.208 162.521,128.594C161.99,133.641 159.146,142.198 157.036,145.568L172.281,145.568C170.172,142.214 167.328,133.641 166.781,128.594C166.74,128.219 166.609,126.969 166.646,126.005C166.661,125.583 166.672,124.703 167.302,124.859C167.927,125.021 168.182,126.219 168.635,127.286C169.438,129.177 170.719,131.818 173.818,133.87C176.151,135.417 178.771,136.453 183.203,135.932C189.865,135.068 194.214,129.26 194.214,123.182C194.214,114.109 186.167,108.432 177.62,110.417C175.938,110.896 175.339,111.365 173.885,112.068C173.161,112.417 172.708,112.401 172.844,111.469C172.938,110.792 174.536,109.057 175.047,108.495C176.646,106.724 177.609,104.688 178.156,102.568C178.943,99.052 178.703,95.667 176.458,91.854C173.698,87.854 169.625,85.245 164.656,85.297M210.984,259.797C206.484,259.771 203.401,254.042 207.964,249.87C208.604,249.214 209.063,248.938 209.193,248.417C209.208,248.068 208.542,247.99 208.193,248.349C207.031,249.563 205.63,250.188 204.042,250.151C200.995,250.057 198.729,247.672 198.74,244.552C199.036,238.823 206.792,237.208 209.193,242.74C209.448,243.38 209.474,243.781 209.526,244.031C209.677,244.63 210.354,244.714 210.354,244.031C210.354,243.646 210.276,243.099 210.156,242.542C209.781,240.823 207.578,235.745 207.286,235.12L215.094,235.12C214.802,235.745 212.609,240.823 212.224,242.542C212.104,243.099 212.026,243.646 212.026,244.031C212.026,244.724 212.703,244.63 212.854,244.031C212.917,243.766 212.948,243.38 213.188,242.74C215.589,237.224 223.344,238.823 223.641,244.552C223.651,247.672 221.37,250.057 218.339,250.151C216.75,250.203 215.349,249.563 214.188,248.349C213.839,247.99 213.188,248.057 213.188,248.417C213.318,248.938 213.771,249.203 214.411,249.87C218.995,254.042 215.896,259.781 211.396,259.797L210.984,259.797ZM13.333,41.349C17.833,41.375 20.932,47.104 16.354,51.276C15.714,51.932 15.255,52.208 15.125,52.729C15.109,53.078 15.776,53.156 16.125,52.797C17.271,51.583 18.688,50.958 20.276,50.995C23.323,51.089 25.589,53.474 25.578,56.594C25.281,62.323 17.526,63.938 15.125,58.406C14.87,57.766 14.844,57.365 14.792,57.115C14.656,56.516 13.974,56.432 13.964,57.115C13.964,57.5 14.042,58.047 14.161,58.604C14.536,60.323 16.74,65.401 17.021,66.031L9.208,66.031C9.505,65.401 11.693,60.323 12.068,58.604C12.188,58.047 12.266,57.5 12.266,57.115C12.266,56.422 11.589,56.5 11.438,57.115C11.375,57.38 11.344,57.766 11.104,58.406C8.703,63.938 0.948,62.323 0.651,56.594C0.641,53.474 2.906,51.089 5.953,50.995C7.542,50.943 8.943,51.583 10.104,52.797C10.453,53.156 11.104,53.089 11.104,52.729C10.974,52.208 10.516,51.943 9.875,51.276C5.297,47.104 8.396,41.375 12.896,41.349L13.333,41.349ZM207.885,296.573C209.302,296.536 210.302,296.255 210.807,295.76C211.37,295.214 211.583,294.219 211.583,292.297L211.583,273.964C211.583,272.042 211.359,271.042 210.807,270.495C210.302,269.99 209.302,269.724 207.885,269.724C206.469,269.724 205.469,270.005 204.964,270.495C204.401,271.042 204.188,272.042 204.188,273.964L204.188,292.286C204.188,294.203 204.417,295.203 204.964,295.75C205.469,296.255 206.469,296.521 207.885,296.563M207.885,266.26C210.302,266.26 212.094,266.844 213.281,268.031C214.828,269.63 215.068,271.818 215.068,273.964L215.068,292.286C215.068,294.604 215.068,300.078 207.885,300.026C200.703,300.068 200.703,294.604 200.703,292.286L200.703,273.964C200.703,271.818 200.943,269.63 202.495,268.031C203.682,266.844 205.458,266.26 207.885,266.26M2.656,1.906L6.125,1.906L6.125,34.62L2.656,34.62L2.656,1.906ZM16.391,4.583C14.979,4.625 13.974,4.906 13.469,5.411C12.906,5.958 12.693,6.958 12.693,8.875L12.693,27.198C12.693,29.115 12.922,30.115 13.469,30.661C13.974,31.167 14.979,31.438 16.391,31.438C17.807,31.438 18.807,31.156 19.318,30.661C19.875,30.115 20.089,29.115 20.089,27.198L20.089,8.875C20.089,6.958 19.865,5.958 19.318,5.411C18.807,4.906 17.807,4.635 16.391,4.583M16.391,34.885C13.974,34.885 12.188,34.286 11,33.115C9.448,31.516 9.208,29.328 9.208,27.182L9.208,8.875C9.224,6.542 9.224,1.078 16.391,1.12C23.573,1.078 23.573,6.542 23.573,8.875L23.573,27.198C23.573,29.344 23.333,31.531 21.786,33.13C20.599,34.313 18.823,34.901 16.391,34.901" style="fill:rgb(35,31,32);"/>
                                    </g>
                                </g>
                            </g>
                        </g>
                    </g>
                </g>
            </g>
        </g>
    </g>
</svg>
