<?xml version="1.0" encoding="UTF-8" standalone="no"?>
<!DOCTYPE svg PUBLIC "-//W3C//DTD SVG 1.1//EN" "http://www.w3.org/Graphics/SVG/1.1/DTD/svg11.dtd">
<svg width="240" height="336" viewBox="0 0 240 336" version="1.1" xmlns="http://www.w3.org/2000/svg" xmlns:xlink="http://www.w3.org/1999/xlink" xml:space="preserve" xmlns:serif="http://www.serif.com/" style="fill-rule:evenodd;clip-rule:evenodd;stroke-linejoin:round;stroke-miterlimit:2;">
    <rect x="-24" y="-33.6" width="288" height="403.2" style="fill:white;"/>
    <rect x="-24" y="-33.6" width="288" height="403.2" style="fill:white;"/>
    <g>
        <g transform="matrix(1,0,0,1,10.6667,18.6667)">
            <g>
                <g>
                    <g>
                        <g>
                            <g>
                                <g>
                                    <path d="M208.177,259.458C211.026,254.703 214.281,250.495 217.667,246.958C214.411,243.391 210.708,238.677 208.094,233.906C205.391,238.771 202.099,243.125 198.714,246.677C201.828,250.068 205.323,254.286 208.177,259.443M143.391,253.219C153.333,262.943 159.88,273.188 166.12,283.375C172.359,273.188 178.917,262.943 188.859,253.219C179.594,243.63 172.917,233.906 166.13,222.849C159.333,233.906 152.656,243.63 143.406,253.219M86.578,201.453C96.521,211.177 103.068,221.422 109.307,231.609C115.547,221.422 122.104,211.177 132.047,201.453C122.797,191.865 116.104,182.141 109.318,171.083C102.521,182.141 95.844,191.865 86.594,201.453M132.036,97.698C122.089,87.99 115.547,77.729 109.307,67.542C103.068,77.729 96.51,87.974 86.568,97.698C95.818,107.286 102.51,117.01 109.292,128.068C116.094,117.01 122.771,107.286 132.021,97.698M75.234,149.474C65.302,139.755 58.745,129.51 52.505,119.318C46.271,129.51 39.708,139.755 29.766,149.474C39.016,159.063 45.708,168.786 52.495,179.844C59.292,168.786 65.969,159.063 75.219,149.474M188.833,149.474C178.891,139.755 172.344,129.51 166.104,119.318C159.87,129.51 153.307,139.755 143.365,149.474C152.615,159.063 159.307,168.786 166.094,179.844C172.891,168.786 179.568,159.063 188.818,149.474M29.766,253.234C39.708,262.958 46.255,273.198 52.495,283.391C58.734,273.198 65.292,262.958 75.234,253.234C65.984,243.646 59.292,233.922 52.505,222.865C45.708,233.922 39.031,243.646 29.781,253.234M75.234,45.932C65.302,36.208 58.745,25.964 52.505,15.776C46.271,25.964 39.708,36.208 29.766,45.932C39.016,55.521 45.708,65.245 52.495,76.302C59.292,65.245 65.969,55.521 75.219,45.932M188.833,45.932C178.891,36.208 172.344,25.964 166.104,15.776C159.87,25.964 153.307,36.208 143.365,45.932C152.615,55.521 159.307,65.245 166.094,76.302C172.891,65.245 179.568,55.521 188.818,45.932M202.323,290.724C202.323,287.021 204.51,284.781 208.109,284.781C209.88,284.781 211.349,285.328 212.349,286.328C213.401,287.385 213.896,288.839 213.896,290.76C213.896,292.125 213.443,293.271 212.573,294.141C211.349,295.37 209.427,295.917 208.109,295.917C206.792,295.917 204.87,295.37 203.641,294.089C202.776,293.219 202.323,292.083 202.323,290.708M16.26,8.443C16.26,12.141 14.078,14.385 10.479,14.385C8.703,14.385 7.24,13.839 6.24,12.839C5.188,11.781 4.693,10.328 4.693,8.401C4.693,7.026 5.146,5.891 6.01,5.026C7.24,3.797 9.156,3.25 10.479,3.25C11.797,3.25 13.719,3.797 14.943,5.078C15.807,5.948 16.26,7.078 16.26,8.458M20.542,23.896C20.542,21.573 19.583,19.328 17.807,17.594C17.26,16.948 16.583,16.443 15.849,16.042C16.208,15.76 16.583,15.495 16.901,15.135C18.542,13.49 19.406,11.208 19.406,8.51C19.406,6.266 18.635,4.302 17.13,2.849C15.13,0.818 12.344,0.083 10.385,0.083C6.917,0.083 1.401,2.365 1.401,8.484C1.401,11.219 2.266,13.505 3.906,15.146C4.224,15.469 4.583,15.734 4.958,16.016C2.318,17.672 0.307,20.448 0.307,23.922C0.307,26.714 1.359,29.266 3.224,31.188C5.094,33.057 7.651,34.021 10.422,33.979C13.208,34.021 15.755,33.016 17.62,31.146C19.49,29.276 20.542,26.714 20.542,23.88M17.396,23.844C17.438,27.859 14.474,30.734 10.464,30.786C8.505,30.786 6.813,30.146 5.49,28.865C4.214,27.583 3.573,25.807 3.625,23.88C3.583,21.958 4.49,20.594 5.266,19.823C6.677,18.448 8.635,17.578 10.464,17.536C12.292,17.536 14.25,18.448 15.568,19.823C16.396,20.594 17.396,21.974 17.396,23.844M198.073,275.281C198.073,277.609 199.031,279.849 200.802,281.589C201.349,282.229 202.031,282.734 202.766,283.135C202.401,283.401 202.031,283.682 201.708,284.042C200.073,285.688 199.203,287.969 199.203,290.667C199.203,292.911 199.979,294.875 201.484,296.333C203.484,298.333 206.271,299.068 208.229,299.068C211.693,299.068 217.214,296.786 217.214,290.667C217.214,287.932 216.349,285.646 214.708,284.005C214.385,283.682 214.026,283.417 213.656,283.135C216.292,281.495 218.307,278.703 218.307,275.229C218.307,272.438 217.255,269.885 215.385,267.964C213.521,266.094 210.964,265.135 208.188,265.188C205.401,265.146 202.859,266.146 200.99,268.016C199.125,269.885 198.073,272.453 198.073,275.281M201.219,275.323C201.177,271.302 204.135,268.432 208.151,268.38C210.109,268.38 211.802,269.021 213.12,270.302C214.401,271.583 215.042,273.359 214.99,275.281C215.026,277.208 214.12,278.568 213.349,279.344C211.932,280.703 209.974,281.573 208.151,281.625C206.323,281.625 204.365,280.719 203.042,279.344C202.229,278.568 201.219,277.193 201.219,275.323M10.438,39.708C7.599,44.464 4.344,48.667 0.948,52.208C4.198,55.776 7.906,60.5 10.516,65.245C13.234,60.38 16.516,56.042 19.901,52.474C16.781,49.083 13.292,44.865 10.438,39.708" style="fill:rgb(227,25,55);"/>
                                </g>
                            </g>
                        </g>
                    </g>
                    <g>
                        <g>
                            <g>
                                <g>
                                    <path d="M208.177,259.458C211.026,254.703 214.281,250.495 217.667,246.958C214.411,243.391 210.708,238.677 208.094,233.906C205.391,238.771 202.099,243.125 198.714,246.677C201.828,250.068 205.323,254.286 208.177,259.443M143.391,253.219C153.333,262.943 159.88,273.188 166.12,283.375C172.359,273.188 178.917,262.943 188.859,253.219C179.594,243.63 172.917,233.906 166.13,222.849C159.333,233.906 152.656,243.63 143.406,253.219M86.578,201.453C96.521,211.177 103.068,221.422 109.307,231.609C115.547,221.422 122.104,211.177 132.047,201.453C122.797,191.865 116.104,182.141 109.318,171.083C102.521,182.141 95.844,191.865 86.594,201.453M132.036,97.698C122.089,87.99 115.547,77.729 109.307,67.542C103.068,77.729 96.51,87.974 86.568,97.698C95.818,107.286 102.51,117.01 109.292,128.068C116.094,117.01 122.771,107.286 132.021,97.698M75.234,149.474C65.302,139.755 58.745,129.51 52.505,119.318C46.271,129.51 39.708,139.755 29.766,149.474C39.016,159.063 45.708,168.786 52.495,179.844C59.292,168.786 65.969,159.063 75.219,149.474M188.833,149.474C178.891,139.755 172.344,129.51 166.104,119.318C159.87,129.51 153.307,139.755 143.365,149.474C152.615,159.063 159.307,168.786 166.094,179.844C172.891,168.786 179.568,159.063 188.818,149.474M29.766,253.234C39.708,262.958 46.255,273.198 52.495,283.391C58.734,273.198 65.292,262.958 75.234,253.234C65.984,243.646 59.292,233.922 52.505,222.865C45.708,233.922 39.031,243.646 29.781,253.234M75.234,45.932C65.302,36.208 58.745,25.964 52.505,15.776C46.271,25.964 39.708,36.208 29.766,45.932C39.016,55.521 45.708,65.245 52.495,76.302C59.292,65.245 65.969,55.521 75.219,45.932M188.833,45.932C178.891,36.208 172.344,25.964 166.104,15.776C159.87,25.964 153.307,36.208 143.365,45.932C152.615,55.521 159.307,65.245 166.094,76.302C172.891,65.245 179.568,55.521 188.818,45.932M202.323,290.724C202.323,287.021 204.51,284.781 208.109,284.781C209.88,284.781 211.349,285.328 212.349,286.328C213.401,287.385 213.896,288.839 213.896,290.76C213.896,292.125 213.443,293.271 212.573,294.141C211.349,295.37 209.427,295.917 208.109,295.917C206.792,295.917 204.87,295.37 203.641,294.089C202.776,293.219 202.323,292.083 202.323,290.708M16.26,8.443C16.26,12.141 14.078,14.385 10.479,14.385C8.703,14.385 7.24,13.839 6.24,12.839C5.188,11.781 4.693,10.328 4.693,8.401C4.693,7.026 5.146,5.891 6.01,5.026C7.24,3.797 9.156,3.25 10.479,3.25C11.797,3.25 13.719,3.797 14.943,5.078C15.807,5.948 16.26,7.078 16.26,8.458M20.542,23.896C20.542,21.573 19.583,19.328 17.807,17.594C17.26,16.948 16.583,16.443 15.849,16.042C16.208,15.76 16.583,15.495 16.901,15.135C18.542,13.49 19.406,11.208 19.406,8.51C19.406,6.266 18.635,4.302 17.13,2.849C15.13,0.818 12.344,0.083 10.385,0.083C6.917,0.083 1.401,2.365 1.401,8.484C1.401,11.219 2.266,13.505 3.906,15.146C4.224,15.469 4.583,15.734 4.958,16.016C2.318,17.672 0.307,20.448 0.307,23.922C0.307,26.714 1.359,29.266 3.224,31.188C5.094,33.057 7.651,34.021 10.422,33.979C13.208,34.021 15.755,33.016 17.62,31.146C19.49,29.276 20.542,26.714 20.542,23.88M17.396,23.844C17.438,27.859 14.474,30.734 10.464,30.786C8.505,30.786 6.813,30.146 5.49,28.865C4.214,27.583 3.573,25.807 3.625,23.88C3.583,21.958 4.49,20.594 5.266,19.823C6.677,18.448 8.635,17.578 10.464,17.536C12.292,17.536 14.25,18.448 15.568,19.823C16.396,20.594 17.396,21.974 17.396,23.844M198.073,275.281C198.073,277.609 199.031,279.849 200.802,281.589C201.349,282.229 202.031,282.734 202.766,283.135C202.401,283.401 202.031,283.682 201.708,284.042C200.073,285.688 199.203,287.969 199.203,290.667C199.203,292.911 199.979,294.875 201.484,296.333C203.484,298.333 206.271,299.068 208.229,299.068C211.693,299.068 217.214,296.786 217.214,290.667C217.214,287.932 216.349,285.646 214.708,284.005C214.385,283.682 214.026,283.417 213.656,283.135C216.292,281.495 218.307,278.703 218.307,275.229C218.307,272.438 217.255,269.885 215.385,267.964C213.521,266.094 210.964,265.135 208.188,265.188C205.401,265.146 202.859,266.146 200.99,268.016C199.125,269.885 198.073,272.453 198.073,275.281M201.219,275.323C201.177,271.302 204.135,268.432 208.151,268.38C210.109,268.38 211.802,269.021 213.12,270.302C214.401,271.583 215.042,273.359 214.99,275.281C215.026,277.208 214.12,278.568 213.349,279.344C211.932,280.703 209.974,281.573 208.151,281.625C206.323,281.625 204.365,280.719 203.042,279.344C202.229,278.568 201.219,277.193 201.219,275.323M10.438,39.708C7.599,44.464 4.344,48.667 0.948,52.208C4.198,55.776 7.906,60.5 10.516,65.245C13.234,60.38 16.516,56.042 19.901,52.474C16.781,49.083 13.292,44.865 10.438,39.708" style="fill:rgb(227,25,55);"/>
                                </g>
                            </g>
                        </g>
                    </g>
                </g>
            </g>
        </g>
    </g>
</svg>
