<?xml version="1.0" encoding="UTF-8" standalone="no"?>
<!DOCTYPE svg PUBLIC "-//W3C//DTD SVG 1.1//EN" "http://www.w3.org/Graphics/SVG/1.1/DTD/svg11.dtd">
<svg width="240" height="336" viewBox="0 0 240 336" version="1.1" xmlns="http://www.w3.org/2000/svg" xmlns:xlink="http://www.w3.org/1999/xlink" xml:space="preserve" xmlns:serif="http://www.serif.com/" style="fill-rule:evenodd;clip-rule:evenodd;stroke-linejoin:round;stroke-miterlimit:2;">
    <rect x="-24" y="-33.6" width="288" height="403.2" style="fill:white;"/>
    <g>
        <g transform="matrix(1,0,0,1,10.6667,18.6667)">
            <g>
                <g>
                    <g>
                        <g>
                            <g>
                                <g>
                                    <path d="M173.917,220.406L159.438,220.406C160.318,222.182 161.094,223.797 161.786,225.375C162.896,227.88 163.458,230.125 163.964,232.823L164.807,238.734C164.979,240.563 164.63,241.484 164.151,241.526L163.323,241.229C161.958,234.531 159.13,229.458 152.865,229.417C146.078,229.365 141.698,235.531 141.698,243.073C141.698,250.786 146.557,257.703 152.703,265.427C157.135,271.01 162.214,277.802 166.688,284.021C171.151,277.802 176.24,271.01 180.661,265.427C186.807,257.703 191.667,250.776 191.667,243.073C191.667,235.531 187.286,229.365 180.5,229.417C174.234,229.469 171.406,234.531 170.443,239.255L169.589,241.552L168.385,240.563C168.745,236.865 169.016,234.875 169.411,232.823C169.922,230.141 170.484,227.88 171.594,225.375L173.943,220.406M205.172,278.646L213.99,278.646L205.172,292.38L205.172,278.646ZM13.911,20.354L5.099,20.354L13.911,6.604L13.911,20.354ZM19.74,56.766L19.74,56.297L19.724,56.141L19.714,55.885L19.698,55.802L19.672,55.63L19.656,55.552L19.63,55.375L19.62,55.286L19.589,55.109L19.578,55.016L19.536,54.844L19.51,54.75L19.469,54.563L19.365,54.188L19.313,54.005L19.281,53.911L19.219,53.708L19.193,53.615L19.125,53.417L19.083,53.307L19.016,53.094L18.979,52.99L18.896,52.776L18.854,52.667L18.776,52.453L18.724,52.349L18.578,52.016L18.484,51.786L18.271,51.333L18.146,51.104L18.094,50.984L17.974,50.745L17.906,50.625L17.776,50.385L17.495,49.891L17.349,49.635L17.266,49.516L16.651,48.505L16.24,47.849L16.13,47.688L16.026,47.531L15.917,47.37L15.719,47.047L15.609,46.891L15.505,46.729L15.396,46.568L15.292,46.406L15.182,46.25L15.078,46.089L14.969,45.927L14.865,45.766L14.755,45.609L14.651,45.448L14.542,45.286L13.833,44.177L13.729,44.021L13.62,43.859L13.516,43.698L13.422,43.536L13.115,43.057L12.714,42.417L12.219,41.589L12.016,41.255L11.828,40.922L11.734,40.75L11.552,40.401L11.271,39.88L11.177,39.708L11.083,39.531L10.938,39.198L10.844,39.016L10.844,38.932L10.828,38.922L10.828,38.677L10.813,38.667L10.813,38.651L10.802,38.651L10.802,38.641L10.385,38.641L10.359,38.651L10.323,38.651L10.307,38.667L10.307,38.693L10.292,38.708L10.292,38.745L10.281,38.76L10.281,39.068L10.094,39.427L10,39.599L9.813,39.958L9.625,40.307L9.531,40.479L9.438,40.656L9.344,40.828L9.156,41.161L9.063,41.333L8.865,41.672L8.771,41.828L8.583,42.151L8.385,42.484L8.292,42.646L8.198,42.802L8.01,43.125L7.807,43.443L7.703,43.604L7.609,43.766L7.5,43.927L7.396,44.083L7.286,44.245L7.182,44.406L7.073,44.568L6.969,44.724L6.859,44.885L6.755,45.047L6.646,45.208L6.542,45.365L6.432,45.526L5.604,46.797L5.5,46.953L5.391,47.115L5.193,47.438L5.083,47.594L4.979,47.755L4.87,47.917L4.766,48.078L4.656,48.234L4.458,48.568L4.255,48.906L4.151,49.063L4.042,49.24L3.938,49.411L3.828,49.583L3.599,49.958L3.453,50.214L3.188,50.693L3,51.052L2.88,51.292L2.708,51.641L2.651,51.76L2.547,51.99L2.495,52.094L2.401,52.323L2.359,52.427L2.266,52.641L2.224,52.75L2.104,53.068L2.026,53.281L1.984,53.391L1.917,53.589L1.88,53.698L1.813,53.896L1.729,54.188L1.625,54.563L1.557,54.844L1.516,55.031L1.505,55.125L1.479,55.297L1.464,55.391L1.438,55.563L1.422,55.646L1.396,55.818L1.385,55.896L1.37,56.057L1.359,56.141L1.344,56.297L1.344,56.38L1.328,56.536L1.328,57.005L1.344,57.219L1.37,57.432L1.385,57.5L1.396,57.635L1.411,57.698L1.438,57.833L1.479,58.031L1.49,58.099L1.516,58.219L1.531,58.286L1.573,58.406L1.583,58.474L1.625,58.594L1.651,58.646L1.693,58.766L1.719,58.823L1.76,58.927L1.786,58.979L1.839,59.089L1.865,59.141L1.917,59.25L1.943,59.302L2,59.406L2.026,59.464L2.078,59.557L2.104,59.609L2.172,59.703L2.214,59.74L2.281,59.833L2.318,59.875L2.427,59.995L2.495,60.078L2.531,60.115L2.599,60.198L2.641,60.234L2.719,60.302L2.76,60.344L2.88,60.448L3,60.542L3.078,60.609L3.12,60.635L3.203,60.703L3.24,60.729L3.375,60.813L3.453,60.865L3.495,60.891L3.63,60.958L3.76,61.026L3.896,61.078L3.99,61.115L4.042,61.13L4.188,61.172L4.339,61.208L4.484,61.25L4.922,61.328L5.073,61.344L5.219,61.359L5.365,61.359L5.313,61.359L5.474,61.344L5.63,61.328L5.688,61.328L5.74,61.318L5.792,61.318L5.844,61.302L5.901,61.292L5.953,61.276L6.005,61.266L6.057,61.25L6.115,61.24L6.167,61.224L6.271,61.198L6.328,61.182L6.432,61.146L6.484,61.115L6.542,61.104L6.646,61.052L6.703,61.026L6.755,60.995L6.849,60.958L6.943,60.901L7.099,60.823L7.156,60.797L7.193,60.771L7.276,60.719L7.313,60.688L7.438,60.609L7.474,60.583L7.516,60.542L7.557,60.516L7.594,60.474L7.635,60.438L7.677,60.396L7.714,60.354L7.839,60.25L7.875,60.208L7.917,60.172L7.958,60.13L7.995,60.089L8.036,60.047L8.078,60.01L8.115,59.969L8.156,59.927L8.198,59.891L8.302,59.755L8.359,59.688L8.411,59.62L8.464,59.557L8.516,59.49L8.667,59.328L8.703,59.276L8.745,59.224L8.786,59.182L8.823,59.141L8.891,59.063L9.036,58.917L9.063,58.885L9.094,58.875L9.12,58.859L9.146,58.849L9.172,58.833L9.198,58.823L9.224,58.807L9.307,58.807L9.318,58.823L9.333,58.833L9.344,58.849L9.359,58.859L9.37,58.885L9.37,58.917L9.385,58.969L9.385,59.557L9.37,59.609L9.359,59.677L9.344,59.74L9.333,59.875L9.318,59.943L9.307,60.01L9.281,60.156L9.25,60.318L9.172,60.755L9.104,61.036L9.063,61.172L9.026,61.302L8.943,61.573L8.906,61.693L8.823,61.932L8.786,62.052L8.703,62.292L8.667,62.411L8.625,62.521L8.583,62.625L8.542,62.734L8.49,62.839L8.438,62.948L8.385,63.052L8.328,63.161L8.276,63.255L8.224,63.344L8.172,63.438L8.115,63.531L8.01,63.719L7.958,63.802L7.901,63.88L7.849,63.958L7.797,64.042L7.745,64.12L7.688,64.198L7.531,64.401L7.448,64.536L7.406,64.599L7.37,64.667L7.286,64.802L7.25,64.854L7.208,64.906L7.167,64.964L7.13,65.016L7.047,65.12L7.01,65.177L6.927,65.281L6.885,65.323L6.859,65.359L6.807,65.443L6.781,65.479L6.703,65.604L6.672,65.641L6.646,65.682L6.646,65.828L6.635,65.844L6.635,65.922L6.62,65.948L6.609,65.974L6.609,66.135L6.62,66.151L6.729,66.151L14.234,66.135L14.25,66.135L14.25,65.974L14.234,65.948L14.234,65.682L14.208,65.656L14.156,65.573L14.13,65.536L14.099,65.495L14.073,65.453L14.047,65.417L13.995,65.333L13.969,65.297L13.927,65.24L13.885,65.188L13.849,65.135L13.807,65.083L13.766,65.026L13.729,64.974L13.646,64.87L13.604,64.813L13.568,64.75L13.484,64.615L13.448,64.547L13.391,64.479L13.339,64.411L13.286,64.349L13.234,64.281L13.177,64.214L13.125,64.135L13.073,64.052L13.021,63.974L12.964,63.896L12.911,63.813L12.859,63.734L12.807,63.641L12.75,63.547L12.594,63.266L12.536,63.172L12.484,63.068L12.432,62.958L12.391,62.854L12.349,62.745L12.313,62.641L12.271,62.531L12.229,62.427L12.151,62.198L12.073,61.958L12.031,61.839L11.948,61.583L11.911,61.453L11.828,61.182L11.802,61.052L11.776,60.901L11.724,60.729L11.672,60.438L11.641,60.292L11.604,60.063L11.589,59.984L11.578,59.917L11.563,59.849L11.552,59.781L11.536,59.714L11.521,59.651L11.51,59.583L11.51,58.849L11.521,58.823L11.536,58.807L11.552,58.797L11.563,58.781L11.578,58.766L11.656,58.766L11.708,58.797L11.734,58.807L11.766,58.823L11.792,58.833L11.818,58.849L11.922,58.953L11.964,58.979L12.005,59.01L12.125,59.13L12.255,59.276L12.297,59.328L12.406,59.438L12.458,59.5L12.563,59.635L12.62,59.703L12.672,59.771L12.724,59.833L12.927,60.036L12.964,60.078L13.005,60.115L13.047,60.156L13.083,60.198L13.125,60.234L13.208,60.318L13.286,60.38L13.328,60.422L13.365,60.464L13.406,60.49L13.448,60.531L13.484,60.557L13.578,60.625L13.661,60.677L13.698,60.703L13.823,60.781L13.875,60.813L13.979,60.865L14.073,60.917L14.13,60.943L14.182,60.969L14.276,61.01L14.38,61.063L14.432,61.078L14.49,61.104L14.542,61.115L14.594,61.13L14.651,61.146L14.703,61.156L14.755,61.172L14.807,61.182L14.865,61.198L14.917,61.208L15.021,61.24L15.13,61.266L15.182,61.266L15.234,61.276L15.292,61.276L15.396,61.292L15.448,61.292L15.609,61.302L15.917,61.302L16.063,61.292L16.214,61.276L16.307,61.266L16.359,61.25L16.651,61.198L16.745,61.172L16.797,61.156L16.948,61.115L17.042,61.089L17.094,61.078L17.229,61.026L17.359,60.969L17.495,60.901L17.625,60.839L17.76,60.755L17.896,60.677L17.974,60.625L18.016,60.594L18.094,60.531L18.135,60.505L18.255,60.411L18.333,60.344L18.375,60.302L18.453,60.234L18.495,60.198L18.563,60.115L18.604,60.078L18.672,59.995L18.708,59.953L18.776,59.875L18.818,59.833L18.885,59.755L18.911,59.714L18.979,59.62L19.005,59.583L19.099,59.438L19.151,59.328L19.177,59.276L19.229,59.182L19.313,59.021L19.339,58.969L19.391,58.859L19.417,58.807L19.484,58.635L19.536,58.458L19.589,58.276L19.62,58.156L19.63,58.089L19.656,57.953L19.672,57.885L19.698,57.755L19.714,57.688L19.74,57.484L19.75,57.339L19.766,57.271L19.776,57.125L19.776,56.901M19.776,56.818L19.776,56.672L19.776,56.818ZM19.896,23.651L19.896,20.354L17.214,20.354L17.214,0.49L13.911,0.49L1.036,20.594L1.036,23.599L13.911,23.599L13.911,30.031L11.776,30.031L11.776,33.276L19.135,33.276L19.135,30.031L17.214,30.031L17.214,23.599L19.896,23.651ZM199.333,242.219L199.333,242.688L199.349,242.844L199.365,243.083L199.375,243.167L199.391,243.339L199.427,243.594L199.443,243.688L199.469,243.859L199.484,243.953L199.521,244.141L199.547,244.234L199.589,244.422L199.615,244.516L199.698,244.792L199.776,245.073L199.844,245.276L199.885,245.38L199.948,245.583L199.99,245.688L200.057,245.891L200.099,245.995L200.177,246.208L200.219,246.318L200.297,246.531L200.339,246.635L200.484,246.969L200.594,247.198L200.646,247.302L200.75,247.531L200.807,247.651L200.927,247.875L200.99,248L201.177,248.359L201.38,248.719L201.594,249.094L201.74,249.344L201.818,249.464L202.125,249.974L202.542,250.641L202.755,250.974L202.865,251.135L202.969,251.297L203.078,251.453L203.182,251.615L203.292,251.776L203.49,252.094L203.599,252.255L203.797,252.578L204.307,253.365L205.026,254.469L205.12,254.63L205.224,254.792L205.333,254.953L205.531,255.271L205.625,255.432L205.734,255.594L205.932,255.911L206.026,256.073L206.323,256.552L206.615,257.047L206.802,257.37L207.099,257.875L207.281,258.208L207.375,258.38L207.469,258.557L207.656,258.901L207.75,259.078L207.938,259.438L208.031,259.609L208.219,259.984L208.219,259.995L208.234,260.01L208.245,260.036L208.26,260.063L208.271,260.078L208.271,260.12L208.286,260.13L208.286,260.146L208.297,260.172L208.297,260.198L208.313,260.198L208.313,260.224L208.365,260.276L208.38,260.276L208.391,260.292L208.646,260.292L208.672,260.276L208.688,260.276L208.714,260.25L208.724,260.25L208.74,260.24L208.755,260.224L208.766,260.208L208.766,260.198L208.781,260.198L208.781,260.104L208.792,260.089L208.792,260.026L208.807,260.01L208.818,259.995L208.818,259.917L209.005,259.542L209.193,259.182L209.286,259.01L209.474,258.661L209.661,258.318L209.849,257.969L209.943,257.797L210.141,257.464L210.422,256.979L210.813,256.328L210.901,256.167L210.995,256.005L211.198,255.688L211.385,255.365L212,254.417L212.104,254.255L212.214,254.099L212.318,253.938L212.427,253.776L212.531,253.615L212.641,253.458L212.745,253.297L212.854,253.135L212.958,252.974L213.068,252.818L213.375,252.333L213.479,252.177L213.786,251.693L213.896,251.536L214.005,251.375L214.109,251.214L214.323,250.896L214.432,250.734L214.536,250.573L214.646,250.411L214.75,250.255L214.953,249.922L215.26,249.411L215.484,249.036L215.63,248.797L215.833,248.438L216.021,248.078L216.193,247.729L216.245,247.609L216.354,247.385L216.406,247.266L216.516,247.036L216.568,246.932L216.661,246.703L216.703,246.599L216.797,246.385L216.833,246.276L216.953,245.953L217.036,245.74L217.073,245.635L217.141,245.438L217.182,245.328L217.25,245.13L217.276,245.036L217.328,244.833L217.354,244.74L217.411,244.552L217.438,244.458L217.474,244.276L217.5,244.182L217.542,243.995L217.557,243.901L217.594,243.729L217.609,243.635L217.635,243.458L217.651,243.38L217.677,243.208L217.688,243.125L217.703,242.964L217.703,242.885L217.714,242.724L217.714,242.646L217.729,242.406L217.729,242.016L217.714,241.792L217.714,241.724L217.703,241.578L217.688,241.51L217.677,241.375L217.661,241.313L217.635,241.177L217.625,241.109L217.594,240.979L217.583,240.911L217.557,240.776L217.5,240.589L217.49,240.536L217.448,240.417L217.422,240.365L217.38,240.245L217.318,240.068L217.286,240.016L217.234,239.911L217.208,239.854L217.13,239.698L217.073,239.604L216.979,239.453L216.953,239.417L216.885,239.323L216.859,239.281L216.797,239.188L216.755,239.146L216.646,239.026L216.578,238.948L216.542,238.906L216.474,238.828L216.432,238.786L216.354,238.719L216.313,238.682L216.193,238.573L216.073,238.479L215.995,238.417L215.953,238.385L215.875,238.333L215.833,238.307L215.698,238.229L215.62,238.172L215.578,238.146L215.443,238.078L215.313,238.016L215.177,237.958L215.083,237.922L215.047,237.906L214.896,237.854L214.766,237.813L214.615,237.776L214.469,237.745L214.177,237.693L214.031,237.682L213.88,237.667L213.469,237.667L213.359,237.682L213.307,237.682L213.146,237.708L213.094,237.719L213.042,237.734L212.99,237.745L212.932,237.76L212.828,237.786L212.776,237.802L212.719,237.813L212.667,237.828L212.615,237.839L212.563,237.854L212.505,237.865L212.401,237.896L212.344,237.906L212.292,237.932L212.24,237.948L212.188,237.974L212.13,238L212.078,238.026L211.932,238.094L211.88,238.12L211.786,238.172L211.693,238.229L211.609,238.281L211.516,238.349L211.479,238.375L211.438,238.401L211.396,238.443L211.318,238.505L211.276,238.547L211.24,238.589L211.198,238.63L211.156,238.667L211.078,238.75L211.036,238.786L210.995,238.828L210.958,238.87L210.917,238.906L210.875,238.948L210.839,238.99L210.797,239.026L210.755,239.068L210.719,239.109L210.677,239.146L210.609,239.214L210.448,239.417L210.396,239.484L210.292,239.589L210.198,239.698L210.156,239.75L210.115,239.786L210.078,239.828L209.995,239.911L209.927,239.974L209.807,240.094L209.781,240.125L209.755,240.135L209.729,240.151L209.703,240.161L209.677,240.177L209.646,240.188L209.568,240.188L209.552,240.177L209.542,240.161L209.526,240.151L209.516,240.135L209.5,240.125L209.49,240.109L209.49,239.359L209.5,239.297L209.516,239.229L209.526,239.161L209.542,239.094L209.552,239.026L209.583,238.88L209.594,238.802L209.646,238.495L209.677,238.349L209.703,238.203L209.729,238.052L209.755,237.922L209.797,237.786L209.833,237.651L209.875,237.521L209.917,237.385L209.953,237.255L209.995,237.13L210.078,236.891L210.115,236.771L210.198,236.531L210.234,236.427L210.276,236.318L210.318,236.214L210.354,236.104L210.396,236L210.448,235.891L210.49,235.797L210.542,235.703L210.599,235.609L210.703,235.422L210.755,235.333L210.813,235.25L210.865,235.172L210.917,235.089L210.969,235.01L211.063,234.849L211.12,234.771L211.156,234.688L211.198,234.625L211.24,234.557L211.276,234.49L211.359,234.354L211.396,234.292L211.479,234.156L211.557,234.036L211.599,233.984L211.641,233.927L211.677,233.875L211.76,233.771L211.797,233.714L211.839,233.661L211.88,233.62L211.906,233.583L211.958,233.5L211.984,233.464L212.01,233.422L212.042,233.38L212.068,233.344L212.094,233.302L212.104,233.26L212.104,233.234L212.12,233.224L212.12,232.995L212.104,232.969L212.104,232.953L212.094,232.943L212.052,232.943L204.521,232.953L204.505,232.969L204.505,233.182L204.521,233.193L204.531,233.224L204.531,233.25L204.557,233.286L204.583,233.328L204.615,233.37L204.641,233.406L204.719,233.531L204.745,233.568L204.771,233.609L204.813,233.651L204.854,233.703L204.891,233.755L204.932,233.807L204.974,233.865L205.01,233.917L205.094,234.021L205.135,234.078L205.172,234.13L205.214,234.198L205.255,234.26L205.292,234.328L205.375,234.464L205.411,234.531L205.453,234.599L205.495,234.661L205.547,234.745L205.599,234.823L205.693,234.984L205.75,235.063L205.802,235.146L205.906,235.302L205.964,235.396L206.068,235.583L206.109,235.677L206.146,235.771L206.188,235.865L206.24,235.974L206.281,236.078L206.323,236.188L206.359,236.292L206.401,236.401L206.443,236.505L206.484,236.625L206.521,236.745L206.604,236.984L206.682,237.24L206.724,237.375L206.76,237.505L206.828,237.771L206.854,237.906L206.885,238.042L206.964,238.479L206.99,238.63L207.016,238.786L207.031,238.87L207.042,238.948L207.057,239.016L207.068,239.083L207.083,239.146L207.099,239.214L207.109,239.281L207.125,239.349L207.135,239.469L207.151,239.573L207.151,240.083L207.135,240.109L207.125,240.125L207.109,240.135L207.099,240.151L207.083,240.161L207.057,240.188L206.974,240.188L206.948,240.177L206.922,240.161L206.896,240.151L206.87,240.135L206.844,240.125L206.818,240.094L206.792,240.068L206.76,240.042L206.734,240.016L206.698,239.99L206.656,239.948L206.615,239.911L206.578,239.87L206.495,239.786L206.453,239.75L206.417,239.698L206.323,239.589L206.271,239.536L206.214,239.484L206.057,239.297L206,239.229L205.906,239.109L205.87,239.068L205.828,239.026L205.786,238.99L205.75,238.948L205.708,238.906L205.667,238.87L205.589,238.786L205.547,238.75L205.385,238.589L205.349,238.547L205.307,238.505L205.172,238.417L205.135,238.385L205.01,238.307L204.922,238.255L204.839,238.203L204.797,238.172L204.76,238.146L204.719,238.12L204.625,238.068L204.521,238.016L204.464,237.99L204.411,237.958L204.359,237.948L204.307,237.922L204.25,237.906L204.198,237.896L204.094,237.854L204.036,237.839L203.875,237.802L203.823,237.786L203.771,237.776L203.719,237.76L203.661,237.745L203.609,237.734L203.557,237.719L203.505,237.708L203.344,237.682L203.292,237.682L203.182,237.667L202.771,237.667L202.62,237.682L202.474,237.693L202.38,237.708L202.328,237.719L202.182,237.745L202.036,237.776L201.943,237.802L201.885,237.813L201.74,237.854L201.646,237.88L201.604,237.896L201.474,237.948L201.339,238L201.208,238.068L201.073,238.135L200.938,238.214L200.807,238.292L200.688,238.375L200.563,238.453L200.443,238.547L200.365,238.615L200.245,238.719L200.135,238.828L200.099,238.87L200.031,238.948L199.99,238.99L199.922,239.068L199.828,239.203L199.802,239.24L199.734,239.333L199.708,239.391L199.641,239.484L199.615,239.536L199.563,239.63L199.484,239.786L199.458,239.844L199.401,239.948L199.333,240.109L199.307,240.161L199.271,240.271L199.245,240.323L199.188,240.495L199.151,240.615L199.083,240.87L199.057,241.005L199.016,241.203L199,241.271L198.974,241.406L198.948,241.62L198.938,241.833L198.938,242.057M198.938,242.141L198.938,242.286L198.938,242.141ZM198.813,275.323L198.813,278.563L201.458,278.563L201.458,298.427L204.745,298.427L217.625,278.323L217.625,275.323L205.146,275.323L205.146,268.885L207.297,268.885L207.297,265.646L199.938,265.646L199.938,268.885L201.859,268.885L201.859,275.323L198.813,275.323ZM45.146,78.589L59.641,78.589C58.755,76.813 57.984,75.198 57.286,73.625C56.193,71.115 55.62,68.87 55.109,66.177L54.271,60.26C54.094,58.432 54.443,57.516 54.922,57.474L55.75,57.766C57.115,64.469 59.948,69.542 66.208,69.578C72.995,69.63 77.375,63.464 77.375,55.927C77.375,48.208 72.516,41.297 66.37,33.568C61.938,28 56.859,21.193 52.396,14.974C47.922,21.182 42.849,27.99 38.411,33.552C32.266,41.281 27.406,48.208 27.406,55.911C27.406,63.453 31.786,69.604 38.573,69.568C44.839,69.51 47.672,64.453 48.63,59.729L49.484,57.432L50.688,58.422C50.328,62.12 50.047,64.109 49.661,66.161C49.151,68.844 48.594,71.099 47.484,73.609L45.13,78.578M159.406,78.578L173.891,78.578C173.005,76.802 172.234,75.188 171.536,73.609C170.443,71.099 169.87,68.859 169.359,66.161L168.521,60.25C168.344,58.422 168.693,57.5 169.172,57.458L170,57.755C171.365,64.453 174.198,69.526 180.458,69.568C187.245,69.62 191.63,63.453 191.63,55.911C191.63,48.198 186.781,41.281 180.635,33.552C176.198,27.99 171.125,21.182 166.651,14.958C162.188,21.182 157.099,27.974 152.677,33.552C146.531,41.281 141.672,48.208 141.672,55.911C141.672,63.453 146.052,69.604 152.839,69.568C159.099,69.51 161.932,64.453 162.896,59.729L163.75,57.432L164.953,58.422C164.594,62.12 164.313,64.109 163.922,66.161C163.417,68.844 162.854,71.099 161.745,73.609L159.396,78.578M59.641,220.406L45.146,220.406C46.026,222.182 46.802,223.797 47.495,225.375C48.604,227.88 49.167,230.125 49.672,232.823L50.516,238.734C50.688,240.563 50.339,241.484 49.859,241.526L49.031,241.229C47.672,234.531 44.823,229.458 38.573,229.417C31.786,229.365 27.406,235.531 27.406,243.073C27.406,250.786 32.266,257.703 38.411,265.427C42.849,271.01 47.922,277.802 52.385,284.021C56.849,277.802 61.938,271.01 66.37,265.427C72.516,257.703 77.375,250.776 77.375,243.073C77.375,235.531 72.995,229.365 66.208,229.417C59.948,229.469 57.099,234.531 56.151,239.255L55.297,241.552L54.094,240.563C54.453,236.865 54.734,234.875 55.125,232.823C55.63,230.141 56.193,227.88 57.302,225.375L59.651,220.406" style="fill:rgb(35,31,32);"/>
                                </g>
                            </g>
                        </g>
                    </g>
                    <g>
                        <g>
                            <g>
                                <g>
                                    <path d="M173.917,220.406L159.438,220.406C160.318,222.182 161.094,223.797 161.786,225.375C162.896,227.88 163.458,230.125 163.964,232.823L164.807,238.734C164.979,240.563 164.63,241.484 164.151,241.526L163.323,241.229C161.958,234.531 159.13,229.458 152.865,229.417C146.078,229.365 141.698,235.531 141.698,243.073C141.698,250.786 146.557,257.703 152.703,265.427C157.135,271.01 162.214,277.802 166.688,284.021C171.151,277.802 176.24,271.01 180.661,265.427C186.807,257.703 191.667,250.776 191.667,243.073C191.667,235.531 187.286,229.365 180.5,229.417C174.234,229.469 171.406,234.531 170.443,239.255L169.589,241.552L168.385,240.563C168.745,236.865 169.016,234.875 169.411,232.823C169.922,230.141 170.484,227.88 171.594,225.375L173.943,220.406M205.172,278.646L213.99,278.646L205.172,292.38L205.172,278.646ZM13.911,20.354L5.099,20.354L13.911,6.604L13.911,20.354ZM19.74,56.766L19.74,56.297L19.724,56.141L19.714,55.885L19.698,55.802L19.672,55.63L19.656,55.552L19.63,55.375L19.62,55.286L19.589,55.109L19.578,55.016L19.536,54.844L19.51,54.75L19.469,54.563L19.365,54.188L19.313,54.005L19.281,53.911L19.219,53.708L19.193,53.615L19.125,53.417L19.083,53.307L19.016,53.094L18.979,52.99L18.896,52.776L18.854,52.667L18.776,52.453L18.724,52.349L18.578,52.016L18.484,51.786L18.271,51.333L18.146,51.104L18.094,50.984L17.974,50.745L17.906,50.625L17.776,50.385L17.495,49.891L17.349,49.635L17.266,49.516L16.651,48.505L16.24,47.849L16.13,47.688L16.026,47.531L15.917,47.37L15.719,47.047L15.609,46.891L15.505,46.729L15.396,46.568L15.292,46.406L15.182,46.25L15.078,46.089L14.969,45.927L14.865,45.766L14.755,45.609L14.651,45.448L14.542,45.286L13.833,44.177L13.729,44.021L13.62,43.859L13.516,43.698L13.422,43.536L13.115,43.057L12.714,42.417L12.219,41.589L12.016,41.255L11.828,40.922L11.734,40.75L11.552,40.401L11.271,39.88L11.177,39.708L11.083,39.531L10.938,39.198L10.844,39.016L10.844,38.932L10.828,38.922L10.828,38.677L10.813,38.667L10.813,38.651L10.802,38.651L10.802,38.641L10.385,38.641L10.359,38.651L10.323,38.651L10.307,38.667L10.307,38.693L10.292,38.708L10.292,38.745L10.281,38.76L10.281,39.068L10.094,39.427L10,39.599L9.813,39.958L9.625,40.307L9.531,40.479L9.438,40.656L9.344,40.828L9.156,41.161L9.063,41.333L8.865,41.672L8.771,41.828L8.583,42.151L8.385,42.484L8.292,42.646L8.198,42.802L8.01,43.125L7.807,43.443L7.703,43.604L7.609,43.766L7.5,43.927L7.396,44.083L7.286,44.245L7.182,44.406L7.073,44.568L6.969,44.724L6.859,44.885L6.755,45.047L6.646,45.208L6.542,45.365L6.432,45.526L5.604,46.797L5.5,46.953L5.391,47.115L5.193,47.438L5.083,47.594L4.979,47.755L4.87,47.917L4.766,48.078L4.656,48.234L4.458,48.568L4.255,48.906L4.151,49.063L4.042,49.24L3.938,49.411L3.828,49.583L3.599,49.958L3.453,50.214L3.188,50.693L3,51.052L2.88,51.292L2.708,51.641L2.651,51.76L2.547,51.99L2.495,52.094L2.401,52.323L2.359,52.427L2.266,52.641L2.224,52.75L2.104,53.068L2.026,53.281L1.984,53.391L1.917,53.589L1.88,53.698L1.813,53.896L1.729,54.188L1.625,54.563L1.557,54.844L1.516,55.031L1.505,55.125L1.479,55.297L1.464,55.391L1.438,55.563L1.422,55.646L1.396,55.818L1.385,55.896L1.37,56.057L1.359,56.141L1.344,56.297L1.344,56.38L1.328,56.536L1.328,57.005L1.344,57.219L1.37,57.432L1.385,57.5L1.396,57.635L1.411,57.698L1.438,57.833L1.479,58.031L1.49,58.099L1.516,58.219L1.531,58.286L1.573,58.406L1.583,58.474L1.625,58.594L1.651,58.646L1.693,58.766L1.719,58.823L1.76,58.927L1.786,58.979L1.839,59.089L1.865,59.141L1.917,59.25L1.943,59.302L2,59.406L2.026,59.464L2.078,59.557L2.104,59.609L2.172,59.703L2.214,59.74L2.281,59.833L2.318,59.875L2.427,59.995L2.495,60.078L2.531,60.115L2.599,60.198L2.641,60.234L2.719,60.302L2.76,60.344L2.88,60.448L3,60.542L3.078,60.609L3.12,60.635L3.203,60.703L3.24,60.729L3.375,60.813L3.453,60.865L3.495,60.891L3.63,60.958L3.76,61.026L3.896,61.078L3.99,61.115L4.042,61.13L4.188,61.172L4.339,61.208L4.484,61.25L4.922,61.328L5.073,61.344L5.219,61.359L5.365,61.359L5.313,61.359L5.474,61.344L5.63,61.328L5.688,61.328L5.74,61.318L5.792,61.318L5.844,61.302L5.901,61.292L5.953,61.276L6.005,61.266L6.057,61.25L6.115,61.24L6.167,61.224L6.271,61.198L6.328,61.182L6.432,61.146L6.484,61.115L6.542,61.104L6.646,61.052L6.703,61.026L6.755,60.995L6.849,60.958L6.943,60.901L7.099,60.823L7.156,60.797L7.193,60.771L7.276,60.719L7.313,60.688L7.438,60.609L7.474,60.583L7.516,60.542L7.557,60.516L7.594,60.474L7.635,60.438L7.677,60.396L7.714,60.354L7.839,60.25L7.875,60.208L7.917,60.172L7.958,60.13L7.995,60.089L8.036,60.047L8.078,60.01L8.115,59.969L8.156,59.927L8.198,59.891L8.302,59.755L8.359,59.688L8.411,59.62L8.464,59.557L8.516,59.49L8.667,59.328L8.703,59.276L8.745,59.224L8.786,59.182L8.823,59.141L8.891,59.063L9.036,58.917L9.063,58.885L9.094,58.875L9.12,58.859L9.146,58.849L9.172,58.833L9.198,58.823L9.224,58.807L9.307,58.807L9.318,58.823L9.333,58.833L9.344,58.849L9.359,58.859L9.37,58.885L9.37,58.917L9.385,58.969L9.385,59.557L9.37,59.609L9.359,59.677L9.344,59.74L9.333,59.875L9.318,59.943L9.307,60.01L9.281,60.156L9.25,60.318L9.172,60.755L9.104,61.036L9.063,61.172L9.026,61.302L8.943,61.573L8.906,61.693L8.823,61.932L8.786,62.052L8.703,62.292L8.667,62.411L8.625,62.521L8.583,62.625L8.542,62.734L8.49,62.839L8.438,62.948L8.385,63.052L8.328,63.161L8.276,63.255L8.224,63.344L8.172,63.438L8.115,63.531L8.01,63.719L7.958,63.802L7.901,63.88L7.849,63.958L7.797,64.042L7.745,64.12L7.688,64.198L7.531,64.401L7.448,64.536L7.406,64.599L7.37,64.667L7.286,64.802L7.25,64.854L7.208,64.906L7.167,64.964L7.13,65.016L7.047,65.12L7.01,65.177L6.927,65.281L6.885,65.323L6.859,65.359L6.807,65.443L6.781,65.479L6.703,65.604L6.672,65.641L6.646,65.682L6.646,65.828L6.635,65.844L6.635,65.922L6.62,65.948L6.609,65.974L6.609,66.135L6.62,66.151L6.729,66.151L14.234,66.135L14.25,66.135L14.25,65.974L14.234,65.948L14.234,65.682L14.208,65.656L14.156,65.573L14.13,65.536L14.099,65.495L14.073,65.453L14.047,65.417L13.995,65.333L13.969,65.297L13.927,65.24L13.885,65.188L13.849,65.135L13.807,65.083L13.766,65.026L13.729,64.974L13.646,64.87L13.604,64.813L13.568,64.75L13.484,64.615L13.448,64.547L13.391,64.479L13.339,64.411L13.286,64.349L13.234,64.281L13.177,64.214L13.125,64.135L13.073,64.052L13.021,63.974L12.964,63.896L12.911,63.813L12.859,63.734L12.807,63.641L12.75,63.547L12.594,63.266L12.536,63.172L12.484,63.068L12.432,62.958L12.391,62.854L12.349,62.745L12.313,62.641L12.271,62.531L12.229,62.427L12.151,62.198L12.073,61.958L12.031,61.839L11.948,61.583L11.911,61.453L11.828,61.182L11.802,61.052L11.776,60.901L11.724,60.729L11.672,60.438L11.641,60.292L11.604,60.063L11.589,59.984L11.578,59.917L11.563,59.849L11.552,59.781L11.536,59.714L11.521,59.651L11.51,59.583L11.51,58.849L11.521,58.823L11.536,58.807L11.552,58.797L11.563,58.781L11.578,58.766L11.656,58.766L11.708,58.797L11.734,58.807L11.766,58.823L11.792,58.833L11.818,58.849L11.922,58.953L11.964,58.979L12.005,59.01L12.125,59.13L12.255,59.276L12.297,59.328L12.406,59.438L12.458,59.5L12.563,59.635L12.62,59.703L12.672,59.771L12.724,59.833L12.927,60.036L12.964,60.078L13.005,60.115L13.047,60.156L13.083,60.198L13.125,60.234L13.208,60.318L13.286,60.38L13.328,60.422L13.365,60.464L13.406,60.49L13.448,60.531L13.484,60.557L13.578,60.625L13.661,60.677L13.698,60.703L13.823,60.781L13.875,60.813L13.979,60.865L14.073,60.917L14.13,60.943L14.182,60.969L14.276,61.01L14.38,61.063L14.432,61.078L14.49,61.104L14.542,61.115L14.594,61.13L14.651,61.146L14.703,61.156L14.755,61.172L14.807,61.182L14.865,61.198L14.917,61.208L15.021,61.24L15.13,61.266L15.182,61.266L15.234,61.276L15.292,61.276L15.396,61.292L15.448,61.292L15.609,61.302L15.917,61.302L16.063,61.292L16.214,61.276L16.307,61.266L16.359,61.25L16.651,61.198L16.745,61.172L16.797,61.156L16.948,61.115L17.042,61.089L17.094,61.078L17.229,61.026L17.359,60.969L17.495,60.901L17.625,60.839L17.76,60.755L17.896,60.677L17.974,60.625L18.016,60.594L18.094,60.531L18.135,60.505L18.255,60.411L18.333,60.344L18.375,60.302L18.453,60.234L18.495,60.198L18.563,60.115L18.604,60.078L18.672,59.995L18.708,59.953L18.776,59.875L18.818,59.833L18.885,59.755L18.911,59.714L18.979,59.62L19.005,59.583L19.099,59.438L19.151,59.328L19.177,59.276L19.229,59.182L19.313,59.021L19.339,58.969L19.391,58.859L19.417,58.807L19.484,58.635L19.536,58.458L19.589,58.276L19.62,58.156L19.63,58.089L19.656,57.953L19.672,57.885L19.698,57.755L19.714,57.688L19.74,57.484L19.75,57.339L19.766,57.271L19.776,57.125L19.776,56.901M19.776,56.818L19.776,56.672L19.776,56.818ZM19.896,23.651L19.896,20.354L17.214,20.354L17.214,0.49L13.911,0.49L1.036,20.594L1.036,23.599L13.911,23.599L13.911,30.031L11.776,30.031L11.776,33.276L19.135,33.276L19.135,30.031L17.214,30.031L17.214,23.599L19.896,23.651ZM199.333,242.219L199.333,242.688L199.349,242.844L199.365,243.083L199.375,243.167L199.391,243.339L199.427,243.594L199.443,243.688L199.469,243.859L199.484,243.953L199.521,244.141L199.547,244.234L199.589,244.422L199.615,244.516L199.698,244.792L199.776,245.073L199.844,245.276L199.885,245.38L199.948,245.583L199.99,245.688L200.057,245.891L200.099,245.995L200.177,246.208L200.219,246.318L200.297,246.531L200.339,246.635L200.484,246.969L200.594,247.198L200.646,247.302L200.75,247.531L200.807,247.651L200.927,247.875L200.99,248L201.177,248.359L201.38,248.719L201.594,249.094L201.74,249.344L201.818,249.464L202.125,249.974L202.542,250.641L202.755,250.974L202.865,251.135L202.969,251.297L203.078,251.453L203.182,251.615L203.292,251.776L203.49,252.094L203.599,252.255L203.797,252.578L204.307,253.365L205.026,254.469L205.12,254.63L205.224,254.792L205.333,254.953L205.531,255.271L205.625,255.432L205.734,255.594L205.932,255.911L206.026,256.073L206.323,256.552L206.615,257.047L206.802,257.37L207.099,257.875L207.281,258.208L207.375,258.38L207.469,258.557L207.656,258.901L207.75,259.078L207.938,259.438L208.031,259.609L208.219,259.984L208.219,259.995L208.234,260.01L208.245,260.036L208.26,260.063L208.271,260.078L208.271,260.12L208.286,260.13L208.286,260.146L208.297,260.172L208.297,260.198L208.313,260.198L208.313,260.224L208.365,260.276L208.38,260.276L208.391,260.292L208.646,260.292L208.672,260.276L208.688,260.276L208.714,260.25L208.724,260.25L208.74,260.24L208.755,260.224L208.766,260.208L208.766,260.198L208.781,260.198L208.781,260.104L208.792,260.089L208.792,260.026L208.807,260.01L208.818,259.995L208.818,259.917L209.005,259.542L209.193,259.182L209.286,259.01L209.474,258.661L209.661,258.318L209.849,257.969L209.943,257.797L210.141,257.464L210.422,256.979L210.813,256.328L210.901,256.167L210.995,256.005L211.198,255.688L211.385,255.365L212,254.417L212.104,254.255L212.214,254.099L212.318,253.938L212.427,253.776L212.531,253.615L212.641,253.458L212.745,253.297L212.854,253.135L212.958,252.974L213.068,252.818L213.375,252.333L213.479,252.177L213.786,251.693L213.896,251.536L214.005,251.375L214.109,251.214L214.323,250.896L214.432,250.734L214.536,250.573L214.646,250.411L214.75,250.255L214.953,249.922L215.26,249.411L215.484,249.036L215.63,248.797L215.833,248.438L216.021,248.078L216.193,247.729L216.245,247.609L216.354,247.385L216.406,247.266L216.516,247.036L216.568,246.932L216.661,246.703L216.703,246.599L216.797,246.385L216.833,246.276L216.953,245.953L217.036,245.74L217.073,245.635L217.141,245.438L217.182,245.328L217.25,245.13L217.276,245.036L217.328,244.833L217.354,244.74L217.411,244.552L217.438,244.458L217.474,244.276L217.5,244.182L217.542,243.995L217.557,243.901L217.594,243.729L217.609,243.635L217.635,243.458L217.651,243.38L217.677,243.208L217.688,243.125L217.703,242.964L217.703,242.885L217.714,242.724L217.714,242.646L217.729,242.406L217.729,242.016L217.714,241.792L217.714,241.724L217.703,241.578L217.688,241.51L217.677,241.375L217.661,241.313L217.635,241.177L217.625,241.109L217.594,240.979L217.583,240.911L217.557,240.776L217.5,240.589L217.49,240.536L217.448,240.417L217.422,240.365L217.38,240.245L217.318,240.068L217.286,240.016L217.234,239.911L217.208,239.854L217.13,239.698L217.073,239.604L216.979,239.453L216.953,239.417L216.885,239.323L216.859,239.281L216.797,239.188L216.755,239.146L216.646,239.026L216.578,238.948L216.542,238.906L216.474,238.828L216.432,238.786L216.354,238.719L216.313,238.682L216.193,238.573L216.073,238.479L215.995,238.417L215.953,238.385L215.875,238.333L215.833,238.307L215.698,238.229L215.62,238.172L215.578,238.146L215.443,238.078L215.313,238.016L215.177,237.958L215.083,237.922L215.047,237.906L214.896,237.854L214.766,237.813L214.615,237.776L214.469,237.745L214.177,237.693L214.031,237.682L213.88,237.667L213.469,237.667L213.359,237.682L213.307,237.682L213.146,237.708L213.094,237.719L213.042,237.734L212.99,237.745L212.932,237.76L212.828,237.786L212.776,237.802L212.719,237.813L212.667,237.828L212.615,237.839L212.563,237.854L212.505,237.865L212.401,237.896L212.344,237.906L212.292,237.932L212.24,237.948L212.188,237.974L212.13,238L212.078,238.026L211.932,238.094L211.88,238.12L211.786,238.172L211.693,238.229L211.609,238.281L211.516,238.349L211.479,238.375L211.438,238.401L211.396,238.443L211.318,238.505L211.276,238.547L211.24,238.589L211.198,238.63L211.156,238.667L211.078,238.75L211.036,238.786L210.995,238.828L210.958,238.87L210.917,238.906L210.875,238.948L210.839,238.99L210.797,239.026L210.755,239.068L210.719,239.109L210.677,239.146L210.609,239.214L210.448,239.417L210.396,239.484L210.292,239.589L210.198,239.698L210.156,239.75L210.115,239.786L210.078,239.828L209.995,239.911L209.927,239.974L209.807,240.094L209.781,240.125L209.755,240.135L209.729,240.151L209.703,240.161L209.677,240.177L209.646,240.188L209.568,240.188L209.552,240.177L209.542,240.161L209.526,240.151L209.516,240.135L209.5,240.125L209.49,240.109L209.49,239.359L209.5,239.297L209.516,239.229L209.526,239.161L209.542,239.094L209.552,239.026L209.583,238.88L209.594,238.802L209.646,238.495L209.677,238.349L209.703,238.203L209.729,238.052L209.755,237.922L209.797,237.786L209.833,237.651L209.875,237.521L209.917,237.385L209.953,237.255L209.995,237.13L210.078,236.891L210.115,236.771L210.198,236.531L210.234,236.427L210.276,236.318L210.318,236.214L210.354,236.104L210.396,236L210.448,235.891L210.49,235.797L210.542,235.703L210.599,235.609L210.703,235.422L210.755,235.333L210.813,235.25L210.865,235.172L210.917,235.089L210.969,235.01L211.063,234.849L211.12,234.771L211.156,234.688L211.198,234.625L211.24,234.557L211.276,234.49L211.359,234.354L211.396,234.292L211.479,234.156L211.557,234.036L211.599,233.984L211.641,233.927L211.677,233.875L211.76,233.771L211.797,233.714L211.839,233.661L211.88,233.62L211.906,233.583L211.958,233.5L211.984,233.464L212.01,233.422L212.042,233.38L212.068,233.344L212.094,233.302L212.104,233.26L212.104,233.234L212.12,233.224L212.12,232.995L212.104,232.969L212.104,232.953L212.094,232.943L212.052,232.943L204.521,232.953L204.505,232.969L204.505,233.182L204.521,233.193L204.531,233.224L204.531,233.25L204.557,233.286L204.583,233.328L204.615,233.37L204.641,233.406L204.719,233.531L204.745,233.568L204.771,233.609L204.813,233.651L204.854,233.703L204.891,233.755L204.932,233.807L204.974,233.865L205.01,233.917L205.094,234.021L205.135,234.078L205.172,234.13L205.214,234.198L205.255,234.26L205.292,234.328L205.375,234.464L205.411,234.531L205.453,234.599L205.495,234.661L205.547,234.745L205.599,234.823L205.693,234.984L205.75,235.063L205.802,235.146L205.906,235.302L205.964,235.396L206.068,235.583L206.109,235.677L206.146,235.771L206.188,235.865L206.24,235.974L206.281,236.078L206.323,236.188L206.359,236.292L206.401,236.401L206.443,236.505L206.484,236.625L206.521,236.745L206.604,236.984L206.682,237.24L206.724,237.375L206.76,237.505L206.828,237.771L206.854,237.906L206.885,238.042L206.964,238.479L206.99,238.63L207.016,238.786L207.031,238.87L207.042,238.948L207.057,239.016L207.068,239.083L207.083,239.146L207.099,239.214L207.109,239.281L207.125,239.349L207.135,239.469L207.151,239.573L207.151,240.083L207.135,240.109L207.125,240.125L207.109,240.135L207.099,240.151L207.083,240.161L207.057,240.188L206.974,240.188L206.948,240.177L206.922,240.161L206.896,240.151L206.87,240.135L206.844,240.125L206.818,240.094L206.792,240.068L206.76,240.042L206.734,240.016L206.698,239.99L206.656,239.948L206.615,239.911L206.578,239.87L206.495,239.786L206.453,239.75L206.417,239.698L206.323,239.589L206.271,239.536L206.214,239.484L206.057,239.297L206,239.229L205.906,239.109L205.87,239.068L205.828,239.026L205.786,238.99L205.75,238.948L205.708,238.906L205.667,238.87L205.589,238.786L205.547,238.75L205.385,238.589L205.349,238.547L205.307,238.505L205.172,238.417L205.135,238.385L205.01,238.307L204.922,238.255L204.839,238.203L204.797,238.172L204.76,238.146L204.719,238.12L204.625,238.068L204.521,238.016L204.464,237.99L204.411,237.958L204.359,237.948L204.307,237.922L204.25,237.906L204.198,237.896L204.094,237.854L204.036,237.839L203.875,237.802L203.823,237.786L203.771,237.776L203.719,237.76L203.661,237.745L203.609,237.734L203.557,237.719L203.505,237.708L203.344,237.682L203.292,237.682L203.182,237.667L202.771,237.667L202.62,237.682L202.474,237.693L202.38,237.708L202.328,237.719L202.182,237.745L202.036,237.776L201.943,237.802L201.885,237.813L201.74,237.854L201.646,237.88L201.604,237.896L201.474,237.948L201.339,238L201.208,238.068L201.073,238.135L200.938,238.214L200.807,238.292L200.688,238.375L200.563,238.453L200.443,238.547L200.365,238.615L200.245,238.719L200.135,238.828L200.099,238.87L200.031,238.948L199.99,238.99L199.922,239.068L199.828,239.203L199.802,239.24L199.734,239.333L199.708,239.391L199.641,239.484L199.615,239.536L199.563,239.63L199.484,239.786L199.458,239.844L199.401,239.948L199.333,240.109L199.307,240.161L199.271,240.271L199.245,240.323L199.188,240.495L199.151,240.615L199.083,240.87L199.057,241.005L199.016,241.203L199,241.271L198.974,241.406L198.948,241.62L198.938,241.833L198.938,242.057M198.938,242.141L198.938,242.286L198.938,242.141ZM198.813,275.323L198.813,278.563L201.458,278.563L201.458,298.427L204.745,298.427L217.625,278.323L217.625,275.323L205.146,275.323L205.146,268.885L207.297,268.885L207.297,265.646L199.938,265.646L199.938,268.885L201.859,268.885L201.859,275.323L198.813,275.323ZM45.146,78.589L59.641,78.589C58.755,76.813 57.984,75.198 57.286,73.625C56.193,71.115 55.62,68.87 55.109,66.177L54.271,60.26C54.094,58.432 54.443,57.516 54.922,57.474L55.75,57.766C57.115,64.469 59.948,69.542 66.208,69.578C72.995,69.63 77.375,63.464 77.375,55.927C77.375,48.208 72.516,41.297 66.37,33.568C61.938,28 56.859,21.193 52.396,14.974C47.922,21.182 42.849,27.99 38.411,33.552C32.266,41.281 27.406,48.208 27.406,55.911C27.406,63.453 31.786,69.604 38.573,69.568C44.839,69.51 47.672,64.453 48.63,59.729L49.484,57.432L50.688,58.422C50.328,62.12 50.047,64.109 49.661,66.161C49.151,68.844 48.594,71.099 47.484,73.609L45.13,78.578M159.406,78.578L173.891,78.578C173.005,76.802 172.234,75.188 171.536,73.609C170.443,71.099 169.87,68.859 169.359,66.161L168.521,60.25C168.344,58.422 168.693,57.5 169.172,57.458L170,57.755C171.365,64.453 174.198,69.526 180.458,69.568C187.245,69.62 191.63,63.453 191.63,55.911C191.63,48.198 186.781,41.281 180.635,33.552C176.198,27.99 171.125,21.182 166.651,14.958C162.188,21.182 157.099,27.974 152.677,33.552C146.531,41.281 141.672,48.208 141.672,55.911C141.672,63.453 146.052,69.604 152.839,69.568C159.099,69.51 161.932,64.453 162.896,59.729L163.75,57.432L164.953,58.422C164.594,62.12 164.313,64.109 163.922,66.161C163.417,68.844 162.854,71.099 161.745,73.609L159.396,78.578M59.641,220.406L45.146,220.406C46.026,222.182 46.802,223.797 47.495,225.375C48.604,227.88 49.167,230.125 49.672,232.823L50.516,238.734C50.688,240.563 50.339,241.484 49.859,241.526L49.031,241.229C47.672,234.531 44.823,229.458 38.573,229.417C31.786,229.365 27.406,235.531 27.406,243.073C27.406,250.786 32.266,257.703 38.411,265.427C42.849,271.01 47.922,277.802 52.385,284.021C56.849,277.802 61.938,271.01 66.37,265.427C72.516,257.703 77.375,250.776 77.375,243.073C77.375,235.531 72.995,229.365 66.208,229.417C59.948,229.469 57.099,234.531 56.151,239.255L55.297,241.552L54.094,240.563C54.453,236.865 54.734,234.875 55.125,232.823C55.63,230.141 56.193,227.88 57.302,225.375L59.651,220.406" style="fill:rgb(35,31,32);"/>
                                </g>
                            </g>
                        </g>
                    </g>
                </g>
            </g>
        </g>
    </g>
</svg>
